<?xml version="1.0" standalone="no"?>
<!DOCTYPE svg PUBLIC "-//W3C//DTD SVG 1.1//EN" "http://www.w3.org/Graphics/SVG/1.1/DTD/svg11.dtd" >
<svg xmlns="http://www.w3.org/2000/svg">
<metadata></metadata>
<defs>
<font id="MelbourneLight" horiz-adv-x="2048" >
<font-face units-per-em="2048" ascent="1536" descent="-512" />
<missing-glyph horiz-adv-x="430" />
<glyph horiz-adv-x="0" />
<glyph />
<glyph unicode=" "  horiz-adv-x="430" />
<glyph unicode="&#x09;" horiz-adv-x="430" />
<glyph unicode="&#xa0;" horiz-adv-x="430" />
<glyph unicode="!" horiz-adv-x="407" d="M156 12q0 -5 3 -8t6 -4h3h72q12 0 12 12v78q0 5 -3 8t-6 4h-3h-72q-12 0 -12 -12v-78zM180 336v1085q0 5 3 8.5t7 4.5h3h24q12 -1 12 -13v-1085q0 -5 -3 -8t-6 -4h-3h-24q-13 0 -13 12z" />
<glyph unicode="&#x22;" horiz-adv-x="542" d="M129 1421q0 5 3 8.5t6 4.5h3h72q12 -1 12 -13l-22 -219q-1 -5 -4 -8t-6 -4h-3h-26q-10 0 -12 12zM317 1421q0 5 3.5 8.5t6.5 4.5h3h71q13 -1 13 -13l-23 -219q-1 -5 -4 -8t-5 -4h-3h-27q-10 0 -12 12z" />
<glyph unicode="#" horiz-adv-x="1304" d="M51 315l6 29q3 8 13 10l292 -2l89 367h-336q-8 0 -10.5 3t-0.5 7l7 29q2 8 12 10l340 -2l82 344l12 10h29q4 0 5.5 -0.5t3.5 -3t-1 -8.5l-82 -342h362l84 344q1 3 3 5t3.5 3t3 1.5t2.5 0.5h1h28q4 0 6 -0.5t4 -3t-1 -8.5l-82 -342h315q8 1 10 -2t0 -8l-6 -29 q-2 -8 -14 -8h-318l-86 -367h361q8 1 10 -2t0 -8l-6 -29q-2 -8 -14 -8h-363l-78 -328l-12 -10h-29q-12 0 -8 13l78 325h-365l-77 -328q-1 -3 -3 -5t-3.5 -3t-3 -1.5t-2.5 -0.5h-1h-28q-13 0 -9 13l78 325h-291q-15 0 -10 10zM412 352h364l88 367h-364z" />
<glyph unicode="$" horiz-adv-x="985" d="M86 389q0 5 3 8t6 3l3 1h25q12 0 12 -12q0 -157 95 -250.5t235 -101.5v692l-141 76q-222 117 -222 299q0 154 103 245t260 97v141q0 5 3 8t6 3l3 1h25q12 0 12 -12v-139q167 -7 257 -97t112 -233q1 -5 -1.5 -9t-5.5 -5l-2 -2l-24 -6q-12 0 -14 10q-22 137 -95.5 212 t-226.5 81v-641l127 -70q258 -140 258 -332q0 -162 -101.5 -261.5t-283.5 -106.5v-154q0 -5 -3 -8t-6 -4h-3h-25q-12 0 -12 12v156q-52 3 -102 16t-101 43t-89.5 73.5t-62.5 112.5t-24 154zM152 1098q0 -68 43 -129t124 -105l146 -80v615q-74 -3 -131 -24t-90.5 -51.5 t-55 -71t-29 -78t-7.5 -76.5zM514 37q164 6 250 96t86 223q0 49 -21 94.5t-59.5 84t-82 69t-99.5 60.5l-74 38v-665z" />
<glyph unicode="%" horiz-adv-x="1185" d="M147 924v276q0 92 44 147.5t124 55.5q78 0 124 -56t46 -147v-276q0 -89 -46.5 -145t-123.5 -56q-80 0 -124 55.5t-44 145.5zM190 944q0 -84 34.5 -130t90.5 -46t90.5 46t34.5 130v238q0 86 -34.5 132t-90.5 46q-58 0 -91.5 -45.5t-33.5 -132.5v-238zM337 3.5 q-2 2.5 1 8.5l475 1411q2 4 5 7t5 4h2h29q12 0 8 -13l-475 -1411l-12 -10h-29q-4 0 -5.5 0.5t-3.5 3zM698 201v276q0 92 44 147.5t124 55.5q78 0 124 -56t46 -147v-276q0 -89 -46.5 -145t-123.5 -56q-80 0 -124 55.5t-44 145.5zM741 221q0 -84 34.5 -130t90.5 -46t90.5 46 t34.5 130v238q0 86 -34.5 132t-90.5 46q-58 0 -91.5 -45.5t-33.5 -132.5v-238z" />
<glyph unicode="&#x26;" horiz-adv-x="1200" d="M112 261q-16 78 6.5 149.5t66 134.5t106.5 119l141 124l-63 93q-66 119 -48 214.5t95 156t178 61.5q117 2 190.5 -69t73.5 -206q0 -6 -3 -9.5t-6 -4.5h-3h-23q-12 0 -12 14q0 106 -56 167t-157 61q-92 0 -157 -52.5t-74.5 -133.5t49.5 -179l383 -582q8 8 28.5 30t32 33 t30.5 25.5t37.5 21t39.5 7.5h43q5 -1 8 -4t4 -6v-2v-25q-4 -12 -14 -12h-31q-22 0 -44.5 -12t-35.5 -23.5t-38 -39t-34 -36.5q18 -27 43 -65t36 -55t28.5 -40.5t27 -33t23.5 -20t27.5 -13t29.5 -2.5h37q6 0 10 -3t5 -6v-3v-23q-1 -12 -15 -12h-45q-23 -1 -45 8t-38 21 t-37.5 39t-35 47t-41 62t-44.5 67l-140 -146q-106 -114 -235.5 -112.5t-229.5 125.5q-58 72 -74 150zM162 379q-27 -132 65 -242q53 -62 109 -87.5t107 -16t95 36t85 69.5l143 150l-303 463l-139 -123q-135 -118 -162 -250z" />
<glyph unicode="(" horiz-adv-x="595" d="M127 588v278q0 150 17.5 279.5t46 224t69 173.5t82 130.5t90.5 91.5q4 4 9 4t7 -2l3 -2l14 -16q8 -8 -2 -16q-55 -42 -102 -107t-92 -166t-71 -254t-26 -340v-278q0 -187 26 -340t71 -254t92 -166t102 -107q4 -4 4.5 -8t-1.5 -6l-1 -2l-14 -16q-9 -10 -19 0 q-49 40 -90.5 91.5t-82 130.5t-69 173.5t-46 224t-17.5 279.5z" />
<glyph unicode=")" horiz-adv-x="696" d="M177.5 1741q-0.5 4 0.5 6l2 2l15 16q8 10 18 0q49 -40 90.5 -91.5t82 -130.5t69 -173.5t46 -224t17.5 -279.5v-278q0 -150 -17.5 -279.5t-46 -224t-69 -173.5t-82 -130.5t-90.5 -91.5q-4 -4 -8.5 -4t-6.5 2l-3 2l-15 16q-8 8 2 16q55 42 102 107t92 166t71 254t26 340 v278q0 187 -26 340t-71 254t-92 166t-102 107q-4 4 -4.5 8z" />
<glyph unicode="*" horiz-adv-x="595" d="M70 1410v3l8 21q0 1 1 2.5t5.5 4t9.5 1.5l182 -58v197q0 5 3 8t7 3l3 1h22q13 0 13 -12v-195l178 56q4 2 7.5 0t4.5 -5l2 -3l8 -21q2 -12 -8 -16l-178 -62l113 -155q3 -4 3 -8t-2 -6l-3 -3l-19 -14q-10 -4 -18 4l-113 154l-109 -150q-3 -4 -7 -5t-7 0l-2 1l-18 14 q-1 1 -2 2.5t-2 7t2 9.5l110 149l-186 64q-5 1 -7 4.5t-1 6.5z" />
<glyph unicode="+" horiz-adv-x="643" d="M18 537v24q1 12 13 12h266v277q0 5 3 8t6 4h3h25q12 0 12 -12v-277h266q5 0 8.5 -3t3.5 -6l1 -3v-24q-1 -13 -13 -13h-266v-272q0 -5 -3 -9t-6 -5l-3 -2h-25q-12 0 -12 12v276h-262q-5 0 -9.5 3t-5.5 7z" />
<glyph unicode="," horiz-adv-x="366" d="M135 90q0 5 3 8t6 4h3h72h1.5t3 -1t3.5 -3t2.5 -5.5t-0.5 -8.5l-49 -209q-1 -5 -4 -8t-6 -3l-2 -1h-21q-12 0 -12 12v215z" />
<glyph unicode="." horiz-adv-x="335" d="M119 12v78q0 5 3 8t6 4h3h72q12 0 12 -12v-78q0 -5 -3 -8t-6 -4h-3h-72q-12 0 -12 12z" />
<glyph unicode="/" horiz-adv-x="667" d="M47 -59l524 1554q1 3 3 5t3.5 3t3 1.5t2.5 0.5h1h28q4 0 6 -0.5t4 -3t-1 -8.5l-525 -1554q-2 -4 -5 -7t-5 -4h-2h-29q-12 0 -8 13z" />
<glyph unicode="0" horiz-adv-x="958" d="M129 406v622q0 192 87 306t263 114q175 0 262.5 -114t87.5 -306v-622q0 -192 -87.5 -306t-262.5 -114q-176 0 -263 114t-87 306zM176 406q0 -193 82.5 -283t220.5 -90q136 0 219.5 90t83.5 283v622q0 103 -23 177t-66 116t-95.5 61t-118.5 19q-303 0 -303 -373v-622z" />
<glyph unicode="1" horiz-adv-x="849" d="M141 12v23q1 12 13 12h247v1339h-110q-5 0 -8 3t-3 7l-1 3v22q0 13 12 13h145q13 -1 13 -13v-1374h247q5 0 8.5 -3t3.5 -6l1 -3v-23q-1 -12 -13 -12h-542q-5 0 -8.5 3t-3.5 6z" />
<glyph unicode="2" horiz-adv-x="892" d="M106 9v3v37q3 15 9 23l434 606q90 127 126 206t36 181q0 49 -7.5 94t-28 90.5t-51 78t-80.5 53t-114 20.5q-130 0 -195 -79.5t-65 -207.5q0 -5 -3 -8t-6 -4h-3h-25q-12 0 -12 12q0 162 83 248t226 86q68 0 123 -18.5t89 -51.5t58.5 -71t36 -84t16.5 -83t5 -75 q0 -95 -33.5 -183t-112.5 -200l-454 -635h614q5 0 8 -3t4 -6v-3v-23q0 -12 -12 -12h-653q-5 0 -8.5 3t-4.5 6z" />
<glyph unicode="3" horiz-adv-x="933" d="M133 332q0 5 3 8t6 4h3h23q12 0 12 -12q6 -152 77.5 -225.5t197.5 -73.5q140 0 218.5 91t78.5 253q0 97 -20 166.5t-55.5 105.5t-74.5 52t-86 16h-14q-5 0 -8.5 3t-3.5 6l-1 3v23q1 12 13 12h16q61 0 105 27.5t68.5 75.5t36 105t11.5 124q0 78 -23.5 139t-62 96 t-82.5 52.5t-90 17.5q-129 0 -195.5 -70t-72.5 -182q0 -5 -3 -8t-6 -3l-3 -1h-25q-12 0 -12 12q4 143 89.5 221t227.5 78q72 0 128.5 -25t89 -62t53.5 -86.5t28.5 -92.5t7.5 -86q0 -41 -4 -79t-16 -85t-32 -83.5t-55.5 -67t-82.5 -42.5q47 -10 82.5 -32.5t57 -55.5t35 -65.5 t19.5 -75t7.5 -70t1.5 -63.5q0 -77 -18 -143.5t-56.5 -123.5t-108 -90.5t-163.5 -33.5q-75 0 -133 22t-92.5 56t-56.5 82t-30.5 92t-9.5 94z" />
<glyph unicode="4" horiz-adv-x="942" d="M109 387v37q0 20 12 43l432 954q6 13 18 13h78q5 0 8.5 -3t4.5 -7v-3v-999h157q5 0 8 -3t3 -6l1 -3v-23q0 -12 -12 -12h-155v-363q0 -5 -3 -8t-7 -4h-3h-24q-13 0 -13 12v363h-493q-12 0 -12 12zM158 422h456v964h-24l-432 -950v-14z" />
<glyph unicode="5" horiz-adv-x="905" d="M113 367q0 12 12 12h22q5 0 8.5 -3t4.5 -6v-3q1 -78 18.5 -137.5t45 -96t66 -60t77 -32t82.5 -8.5q131 0 212.5 98t81.5 277v137q0 172 -79 260t-215 88q-115 0 -186.5 -41.5t-102.5 -136.5q-1 -13 -13 -13h-22q-5 0 -8 3t-3 7l-1 3v706q0 5 3 8.5t6 4.5h3h553q5 0 8 -3 t4 -7v-3v-24q0 -13 -12 -13h-518v-587q17 43 54.5 73.5t83 44.5t82 19.5t69.5 5.5q157 0 249.5 -105.5t92.5 -285.5v-141q0 -196 -90 -309t-252 -113q-161 0 -246 98.5t-90 282.5z" />
<glyph unicode="6" horiz-adv-x="964" d="M129 408v606q0 216 94.5 325t255.5 109q88 0 155 -27.5t108.5 -77t62 -113.5t20.5 -140q0 -5 -3 -8.5t-6 -3.5l-3 -1h-22q-13 1 -13 13q-6 154 -88 232.5t-211 78.5q-57 0 -107 -18t-96.5 -59.5t-74 -120.5t-27.5 -189v-355q17 59 55 103.5t85.5 67t92 32.5t85.5 10 q172 0 258 -102.5t86 -286.5v-75q0 -191 -94 -306.5t-273 -115.5q-158 0 -249 117.5t-91 304.5zM174 408q0 -181 84 -278t211 -97q151 0 235 98.5t84 276.5v71q0 171 -74 258.5t-220 87.5q-33 0 -66.5 -5t-82 -26t-84 -56t-61.5 -102t-26 -157v-71z" />
<glyph unicode="7" horiz-adv-x="821" d="M76 1396v3v22q0 13 12 13h643q12 -1 12 -13v-75q0 -115 -59 -254l-457 -1082l-12 -10h-29q-14 0 -8 12l469 1100q45 105 49 225v49h-608q-5 0 -8 3t-4 7z" />
<glyph unicode="8" horiz-adv-x="931" d="M115 389q0 154 61 250t164 123q-63 16 -106 73.5t-60.5 125t-17.5 139.5q0 348 309 348t309 -348q0 -72 -17.5 -139.5t-60.5 -125t-106 -73.5q103 -27 164 -123t61 -250q0 -52 -10.5 -105t-36 -107.5t-64 -96t-100.5 -68t-139 -26.5t-139 26.5t-100.5 68t-64 96 t-36 107.5t-10.5 105zM162 389q0 -90 26 -160.5t69.5 -112t96.5 -62.5t111 -21t111 21t96.5 62.5t69.5 112t26 160.5q0 155 -79.5 251.5t-223.5 96.5t-223.5 -96.5t-79.5 -251.5zM203 1100q0 -79 19 -138.5t47 -92.5t65.5 -53t68 -26t62.5 -6t62.5 6t68 26t65.5 53t47 92.5 t19 138.5q0 157 -69.5 229t-192.5 72t-192.5 -72t-69.5 -229z" />
<glyph unicode="9" horiz-adv-x="931" d="M111 969v59q0 209 89.5 314.5t258.5 105.5q162 0 261 -114.5t99 -305.5v-618q0 -195 -95 -309.5t-261 -114.5q-154 0 -241 97.5t-93 250.5q0 12 12 12h23q5 0 8 -3t4 -6v-3q6 -149 91.5 -225t195.5 -76q139 0 224 97.5t85 279.5v374q-37 -104 -117.5 -155t-187.5 -51 q-95 0 -165.5 31.5t-111 87t-60 123.5t-19.5 149zM158 973q0 -175 84 -261.5t225 -86.5q143 0 224 94t81 270v39q0 173 -92.5 273t-220.5 100q-135 0 -218 -91t-83 -282v-55z" />
<glyph unicode=":" horiz-adv-x="350" d="M127 12v78q0 5 3 8t6 4h3h72q12 0 12 -12v-78q0 -5 -3 -8t-6 -4h-3h-72q-12 0 -12 12zM127 662v77q0 5 3 8.5t6 4.5h3h72q12 -1 12 -13v-77q0 -5 -3 -8.5t-6 -3.5l-3 -1h-72q-12 1 -12 13z" />
<glyph unicode=";" horiz-adv-x="366" d="M133 662v77q0 5 3 8.5t6 4.5h3h72q12 -1 12 -13v-77q0 -5 -3 -8.5t-6 -3.5l-3 -1h-72q-12 1 -12 13zM135 90q0 5 3 8t6 4h3h72h1.5t3 -1t3.5 -3t2.5 -5.5t-0.5 -8.5l-49 -209q-1 -5 -4 -8t-6 -3l-2 -1h-21q-12 0 -12 12v215z" />
<glyph unicode="&#x3c;" horiz-adv-x="663" d="M63 532v39q0 13 9 17l518 327q6 3 8 0t2 -10v-39q0 -8 -12 -16l-477 -299l477 -295q12 -8 12 -16v-41q0 -7 -2 -10.5t-8 -0.5l-518 328q-9 7 -9 16z" />
<glyph unicode="=" horiz-adv-x="980" d="M127 389v25q0 12 12 12h703q5 0 8 -3t4 -6v-3v-25q0 -12 -12 -12h-699q-5 0 -9 3t-6 6zM127 688v25q0 12 12 12h703q5 0 8 -3t4 -6v-3v-25q0 -12 -12 -12h-699q-5 0 -9 3t-6 6z" />
<glyph unicode="&#x3e;" horiz-adv-x="663" d="M63 199v41q0 7 13 16l477 295l-477 299q-13 9 -13 16v39q0 15 11 10l518 -327q8 -4 8 -17v-39q0 -10 -8 -16l-518 -328q-6 -3 -8.5 0.5t-2.5 10.5z" />
<glyph unicode="?" horiz-adv-x="759" d="M72 1178q28 270 295 270q159 0 240.5 -96t78.5 -242q-3 -101 -40 -168.5t-122 -159.5q-67 -73 -101 -129t-34 -125v-161q0 -5 -2.5 -8.5t-4.5 -4.5h-3h-27q-10 1 -10 13v161q0 43 11 81t39 80t50.5 70t69.5 81q29 32 36.5 40.5t31.5 41t32.5 54t17.5 58.5t9 76 q0 128 -68 209.5t-209 81.5q-219 0 -243 -221q0 -5 -2.5 -9t-4.5 -5l-3 -1h-27q-10 1 -10 13zM317 12v78q0 5 3.5 8t6.5 4h3h71q13 0 13 -12v-78q0 -5 -3 -8t-7 -4h-3h-71q-13 0 -13 12z" />
<glyph unicode="@" horiz-adv-x="1425" d="M-334 831l211 236l-211 109q133 37 377 106.5t309 87.5v105q0 2 0.5 5t2.5 10t6.5 13t13.5 10.5t22 4.5h92q4 0 9.5 -1t18.5 -9t20 -23l24 -55q9 2 67 18t89 25v-355l-17 -18l11 -23l172 408q4 9 11 16t13.5 10t12 5t9.5 2h3h88h2.5t6.5 -1t9.5 -2.5t10 -4.5t9.5 -7.5 t6.5 -11.5t2.5 -16v-324l141 39l25 8v-346l-96 -102q56 16 274 77.5t336 94.5l-209 -238l209 -106q-197 -57 -563 -160.5t-463 -130.5l-25 -6v354l82 90l-278 -80l2 -170q0 -2 -0.5 -5t-2.5 -10.5t-6.5 -13.5t-13.5 -11t-22 -5h-60q-2 0 -5 0.5t-10.5 2.5t-13.5 6.5 t-11 13.5t-5 22v127l-143 -39l-27 -8v2l-2 -2v344l96 105q-55 -16 -273.5 -78t-336.5 -95zM-274 868l577 164l49 51v267l-624 -179l178 -96zM-113 1188l2 6l7 2q4 0 4 -2l34 -74l-6 74q0 4 4 4l7 2q2 2 6 -4l30 -66l-8 82q0 5 4 5l6 2q5 -1 5 -5l8 -94l-4 -4l-11 -4 q-4 0 -6 2l-26 57l6 -63l-2 -4l-13 -4q-4 0 -6 4zM4 1126l2 97l2 4l12 4q3 0 5 -2l51 -84l-2 -4l-6 -2q-2 -2 -7 2l-14 24l-29 -8v-29q0 -4 -2 -4l-6 -2q-6 -2 -6 4zM18 1171l23 7l-23 39v-46zM55 1102l25 8q17 4 31 -11t0 -30q20 -4 19.5 -27.5t-21.5 -29.5l-27 -6z M66 1239q-2 4 2 4l8 2q4 2 6 -2l49 -61l-20 69q-2 4 2 4q10 3 10 0l27 -90q1 -2 -4 -5t-9 -3q-2 0 -4 2l-49 64l20 -70q0 -4 -4 -6h-6q-2 -2 -4 2zM72 1094l8 -27q9 2 12.5 3.5t7 5.5t2.5 11q-7 14 -18 9zM82 1053l10 -31l12 2q16 6 13 23q-5 16 -32 7q-2 -1 -3 -1zM94 -8 h76v28l74 -45l-74 -45v31h-76v31zM94 45v25h1352v-25h-1352zM94 104v60q0 4 2 4h6q2 0 2 -2l13 -25l10 25l2 2h6q2 0 2 -4v-60q0 -2 -2 -2h-4q-2 0 -2 2v48l-8 -23l-2 -2h-4q-2 0 -4 2l-9 23l2 -48q0 -2 -4 -2h-4q-2 0 -2 2zM94 195v26h1352v-26h-1352zM125 1118l2 4l6 2 q4 0 4 -2l17 -59q8 -25 22 -19q16 3 8 27l-16 59q1 5 8 7q4 0 6 -2l17 -60q5 -13 0 -27t-19 -18q-14 -3 -25 5.5t-16 23.5zM143 1262q0 4 4 4l9 2q2 2 4 -2l49 -62l-21 70q1 4 5 4q1 0 3 1q5 3 7 -1l24 -90q4 -3 -5 -7q-3 -1 -5 -1q-4 0 -6 2l-49 61l20 -67q3 -3 -3 -7 l-5 -2q-4 0 -4 4zM145 104l19 62l2 2h8q2 0 2 -2l17 -62q0 -2 -3 -2h-4q-2 0 -2 2l-4 17h-20l-4 -17q0 -2 -4 -2h-5q-2 0 -2 2zM162 131h16l-8 27zM197 1137q-6 6 0 6l8 2q4 0 6 -2l31 -43h2l4 53q0 4 4 4l6 2l3 -1q1 -1 1 -3l-8 -98q0 -4 -2 -4l-6 -2h-2q-2 -1 -2.5 -0.5 t0.5 2.5v28q-2 0 -4 2zM203 104v64h16q21 0 21 -21q0 -11 -11 -18q9 -18 11 -18h2l2 -2v-5q0 -2 -2 -2h-2q-3 0 -6 1.5t-5.5 5t-3.5 6t-3 7t-3 5.5h-6v-23l-2 -2h-6q-2 0 -2 2zM203 582q89 27 187 55t226.5 63t188.5 52q5 1 119 34q143 41 290 82v303q-22 -6 -46.5 -13 t-54 -15t-46.5 -13q-172 -50 -203 -59l-256 -72l-16 -4q-46 -13 -132 -37t-108 -30l-149 -43v-303zM213 137h6q6 0 8 2t2 8q0 7 -2 9t-8 2h-6v-21zM217 909l23 6v19zM240 1192v96l4 4l10 4q4 0 6 -2l49 -84l-2 -4l-6 -2q-2 0 -4 2l-14 25l-31 -8l2 -29l-2 -4l-8 -2l-3 1 q-1 1 -1 3zM248 918l10 4v32l-10 -12v-24zM250 123v24q0 9 5.5 15t14.5 6q19 0 19 -16q0 -2 -2 -2l-2 -3l-4 3q0 10 -11 10q-10 0 -10 -13v-24q0 -5 1 -7.5t3 -3.5t6 -1q11 0 11 12l2 2h4q2 0 2 -2q0 -23 -19 -23q-6 0 -10.5 3.5t-7 8.5t-2.5 11zM252 1237l22 6l-22 39v-45z M266 924l13 4v47l-13 -12v-39zM274 1137q-6 16 4.5 25.5t25.5 7t20 -16.5q0 -10 -4.5 -22t-4.5 -21l4 -10q-1 -5 -8 -8q-3 -1 -5.5 4.5t-2.5 9.5q-3 9 3.5 22t2.5 21q-3 11 -14 8q-11 -2 -8 -16l-2 -4q-11 -4 -11 0zM281 4v2q0 4 2 4h34l2 -2v-4q0 -4 -2 -4h-12v-53l-2 -2 h-4q-4 0 -4 2v53h-12zM287 928l10 4v63l-10 -12v-55zM301 123v24q0 21 18 21q10 0 15.5 -6.5t5.5 -14.5v-24q0 -10 -5.5 -16.5t-15.5 -6.5q-18 0 -18 23zM305 934l10 4v78l-10 -12v-70zM309 123q0 -12 10 -12q11 0 11 12v24q0 13 -11 13q-10 0 -10 -13v-24zM309 1079 q0 6 10 8q5 0 5 -4l2 -6q0 -4 -2 -6h-9q-2 -1 -3 -0.5t-1 2.5zM324 940l12 2v94l-12 -12v-84zM330 6q0 4 2 4h4q2 -2 2 -4v-18q4 4 10 4q12 0 12 -17v-28q0 -2 -2 -2h-4q-2 0 -2 2v28q0 9 -6 9q-8 0 -8 -9v-28l-2 -2h-4q-2 0 -2 2v59zM342 891q-1 2 4 5t8 3q4 0 6 -2l56 -70 l-23 78q-2 4 2 6h6q7 2 7 -2l28 -100q1 -3 -4.5 -5.5t-9.5 -2.5q-2 0 -4 2l-56 69l23 -77q0 -4 -4 -4l-6 -3q0 3 -4 5zM342 946l10 2v105l-10 -9v-98zM348 119v16q0 6 2.5 12t9.5 11.5t19 5.5q11 0 20 -8t9 -21v-8q0 -29 -25 -29q-9 0 -15 5.5t-6 11.5q0 11 23 16v4 q0 6 -6 6t-6 -4l-2 -4h-4q-2 0 -2 4q0 13 14 13t14 -17v-16q0 -4 -2 -4h-4q-2 2 -2 4v6l-10 -2q-4 0 -4 -6t14 -6q8 0 11 4t3 14v8q0 10 -6 15.5t-14 5.5q-21 0 -21 -23v-14q0 -20 19 -25l2 -2v-4q0 -2 -4 -2q-27 7 -27 33zM371 -20q0 3 2 5.5t5.5 4.5t8.5 2q6 0 10 -5 t4 -12v-28q0 -2 -2 -2h-4q-2 0 -2 2q-4 -4 -10 -4q-5 0 -8.5 4t-3.5 10q0 3 1 5t4 4t5 3t6 2t6 2v4q0 3 -2 5t-4 2q-6 0 -6 -4q0 -5 -4 -5h-2q-4 0 -4 5zM379 -43q0 -6 6 -6q3 0 5.5 2.5t2.5 5.5v6l-10 -4q-4 0 -4 -4zM382 744.5q1 7.5 6 13.5t13 8q25 6 33 -14q4 -4 -2 -7 l-2 -2q-6 0 -6 2q-6 12 -18 9q-14 -3 -11 -21l11 -35q3 -15 18 -12q13 3 10 21l2 4q1 0 3 1q5 3 7 -1q4 -18 -7.5 -29.5t-26.5 -8t-19 22.5l-10 33q-2 8 -1 15.5zM414 -12q0 4 2 4h4q2 -2 2 -4q0 4 8 4q14 0 14 -17v-28l-2 -2h-4q-2 0 -2 2v28q0 9 -6 9q-8 0 -8 -9v-28 l-2 -2h-4q-2 0 -2 2v41zM418 104v64h31l4 -4v-2q0 -4 -4 -4h-21v-19h14l4 -2v-4q0 -2 -4 -2h-14v-27l-4 -2h-4q-2 0 -2 2zM430 920l53 14l6 -2l3 -6q-1 -4 -5 -6l-38 -11l8 -32l28 8l7 -2l2 -6q1 -5 -5 -7l-28 -8l8 -33l41 11l4 -2q0 -1 1 -3.5t1.5 -3.5t0 -3t-2.5 -3 l-55 -14zM446 774l3 4l4 2q4 0 6 -4l8 -33l29 7l-9 34l2 4l7 3q4 1 4 -3l22 -83l-2 -5l-6 -2q-2 -2 -4 2l-10 39l-29 -8l10 -39l-2 -4l-6 -2q-4 0 -4 4zM457 6q0 4 2 4h4q2 -2 2 -4v-33l12 17l4 2h4l2 -4l-12 -15l14 -26v-2h-6q0 -2 -2 0l-12 22l-4 -6v-14l-2 -2h-4 q-2 0 -2 2v59zM459 123v24q0 8 5 14.5t13 6.5q10 0 15.5 -6.5t5.5 -14.5v-24q0 -10 -5.5 -16.5t-15.5 -6.5q-9 0 -13.5 6.5t-4.5 16.5zM467 123q0 -12 10 -12q12 0 12 12v24q0 6 -3.5 9.5t-8.5 3.5q-10 0 -10 -13v-24zM487 1229l7 6l-7 16v-22zM496 -41l2 2h4q2 0 2 -4 q0 -6 8 -6q4 0 4 6q0 4 -9 11t-9 12q0 12 14 12q12 0 12 -10l-2 -5h-2q-1 0 -4 3q0 4 -4 4q-6 0 -6 -4q0 -6 10 -11.5t10 -11.5t-4 -10t-10 -4q-4 0 -7.5 1.5t-5 4t-2.5 5.5t-1 5zM496 987l10 4v228q-3 -4 -10 -11v-221zM508 940l53 16l6 -4l2 -6q0 -4 -4 -4l-39 -12l9 -31 l30 8l4 -4q0 -1 1 -2q2 -3 1.5 -5.5t-4.5 -2.5l-28 -8l10 -33l39 10q2 0 4 -1t2.5 -2t1 -4l0.5 -3q0 -4 -4 -4l-55 -14zM510 104v64h16q21 0 21 -21q0 -12 -12 -18l8 -14q0 -4 4 -4h2l2 -2v-5q0 -2 -2 -2h-2q-2 0 -4 0.5t-3.5 1.5l-3 2t-2.5 3t-2 3t-2 3.5t-1.5 4t-1.5 4 t-1 3.5h-6v-23l-4 -2h-2q-4 0 -4 2zM514 993l12 4v244l-12 -12v-236zM520 137h6q11 0 11 10q0 11 -11 11h-6v-21zM532 709l3 90q1 5 14 6q2 2 4 -2l47 -76l-4 -6l-4 -2q-4 0 -6 2l-13 22l-26 -6v-26q0 -4 -4 -4l-6 -2q-5 -2 -5 4zM532 999l13 2v261l-13 -13v-250zM547 750 l20 6l-20 37v-43zM553 1006l10 2v274l-10 -12v-264zM555 -12q0 2 4 2h2v4q0 16 14 16h3l2 -2v-4q0 -2 -2 -2h-3q-6 0 -6 -8v-4h9q2 0 2 -2v-2q0 -4 -2 -4h-9v-35l-2 -2h-4q-2 0 -2 2v35h-2q-4 0 -4 4v2zM561 102v66h33l4 -4v-2q0 -4 -2 -4h-25v-19h17l4 -2v-4q0 -2 -4 -2 h-17v-20h23l4 -2v-5q0 -2 -2 -2h-35zM567 1411l29 -65l94 98zM571 1010l13 4v289l-13 -13v-280zM584 -27q0 19 16 19t16 -19v-14q0 -16 -16 -16t-16 16v14zM586 963l30 8q31 8 41 -27l11 -39q12 -35 -23 -43l-31 -8zM590 817l22 6q25 6 35 -20q3 -21 -8 -29l14 -18 q2 -4 9 -4h2l4 -2l2 -7q0 -2 -4 -4h-2q-11 -3 -23 9l-14 20l-11 -2l11 -33l-4 -6h-5q-4 -2 -6 2zM590 1016l12 2v303l-12 -10v-295zM594 -27v-14q0 -8 6 -8q8 0 8 8v14q0 11 -8 11q-6 0 -6 -11zM604 809l8 -31q6 1 10 2.5t8.5 4t4 6.5t-1.5 10q-2 10 -11 10.5t-18 -2.5z M604 952l23 -80q2 1 6 2t6 2t5 2t4.5 2.5t3 3.5t2 4.5t0.5 5.5t-1 7l-10 39q-4 15 -15 16t-24 -4zM606 164l2 4h4l2 -2l13 -53h2l12 53l2 2h4l2 -4l-14 -60l-2 -2h-8q-4 0 -4 2zM610 1026l11 12v305l-11 -12v-305zM627 -12q0 4 2 4h4q2 -2 2 -4q4 4 10 4l2 -2v-4q0 -2 -2 -2 q-10 0 -10 -9v-28l-2 -2h-4q-2 0 -2 2v41zM629 1047l10 12v303l-10 -10v-305zM647 1067l12 12v305l-12 -12v-305zM659 102v66h33l4 -4v-2q0 -4 -4 -4h-24v-19h18l4 -2v-4q0 -2 -4 -2h-18v-20h24l4 -2v-5q0 -2 -4 -2h-33zM668 1087l10 13v303l-10 -12v-304zM670 -12q0 4 4 4 h2q4 0 4 -4v-29q0 -8 6 -8q8 0 8 8v29l2 4h4q2 0 2 -4v-41q0 -2 -2 -2h-2q-4 0 -4 2q-4 -4 -8 -4q-16 0 -16 16v29zM676 748v90q0 3 14 6q2 2 4 -2l47 -78l-2 -4l-6 -2q-4 0 -4 2l-14 24l-27 -8v-26q0 -5 -2 -5l-6 -2q-4 1 -4 5zM686 1108q0 1 4 5.5t6 6.5v303l-10 -10v-305 zM688 791l21 4l-21 36v-40zM702 989q-3 2 6 6l7 2q4 2 6 -2l29 -34l6 45l4 4l8 2q4 2 6 -2l27 -101q2 -4 -2 -4q-13 -4 -13 0l-20 78l-4 -39l-2 -4l-8 -2q-5 0 -7 2l-24 31l24 -76q0 -6 -4 -6l-6 -2q-4 0 -6 4zM707 104v64h16q20 0 20 -21q0 -11 -10 -18q8 -18 10 -18h2 l3 -2v-5q-1 -2 -3 -2h-2q-4 0 -7.5 3t-5 6t-4 9t-3.5 7h-6v-23l-2 -2h-6q-2 0 -2 2zM713 -41l2 2h2q4 0 4 -4q0 -6 6 -6t6 6q0 4 -12 10q-6 4 -6 13q0 12 12 12q11 0 14 -10l-2 -5h-2q-4 0 -4 3q0 4 -6 4q-4 0 -4 -4q0 -5 9 -10.5t9 -12.5q0 -6 -4 -10t-10 -4q-14 0 -14 16z M717 137h6q6 0 8 2t2 8q0 7 -2 9t-8 2h-6v-21zM717 330l14 14v303l-14 -16v-301zM723 307l963 273l-179 98l181 207l-578 -164l-43 -47v-199q0 -2 -0.5 -5t-3 -10.5t-6.5 -13.5t-14 -11t-23 -5h-57q-2 0 -5 0.5t-10.5 2.5t-13.5 6.5t-11 13.5t-5 22v39zM737 827q-7 29 19 35 q21 8 32 -14q0 -2 -2 -4l-4 -2q-3 -3 -6 0q-3 13 -16 10q-16 -6 -10 -23l8 -32q6 -18 20 -15q14 7 8 21l5 6h4q4 2 6 -2q4 -17 -7 -28.5t-27 -8t-22 22.5zM739 352l11 13v303l-11 -13v-303zM752 104l18 62l2 2h8q2 0 2 -2l19 -62l-2 -2h-6q-3 3 -5 10.5t-2 8.5h-20l-4 -17 l-2 -2h-4q-4 0 -4 2zM754 2v4q0 4 2 4h4q4 0 4 -4v-4q0 -2 -4 -2h-4q-2 0 -2 2zM754 -12l2 4h4q2 0 2 -4v-41q0 -2 -2 -2h-4q-2 0 -2 2v41zM758 373l10 12v303l-10 -12v-303zM768 131h16l-8 27zM774 -12q0 4 2 4h4q2 -2 2 -4q0 4 9 4q14 0 14 -17v-28q0 -2 -2 -2h-4 q-2 0 -2 2v28q0 9 -6 9q-9 0 -9 -9v-28l-2 -2h-4q-2 0 -2 2v41zM776 393l10 13v303l-10 -13v-303zM795 414l12 12v303l-12 -12v-303zM795 864v4q-2 4 2 6l47 13l4 -2q4 -11 0 -11l-19 -6l21 -73l-2 -4l-6 -3q-2 -1 -4 3l-21 75l-16 -4zM803 985q-7 37 22 45q33 9 43 -26 l11 -41q9 -27 -17 -40q-25 -12 -41 8q-4 6 -6 15zM811 104v60q0 4 2 4h6q2 0 2 -2l21 -47l-2 45q0 4 4 4h4q2 0 2 -4v-60q0 -2 -2 -2h-6q-2 0 -2 2l-21 48v-48q0 -2 -2 -2h-4q-2 0 -2 2zM815 434l10 12v291l-10 -4v-299zM817 -25q0 17 14 17q5 0 9 -4v2l2 2h4l2 -2v-49 q0 -17 -14 -17q-17 0 -17 15q0 2 2 2h2q4 0 4 -2q0 -7 9 -7q6 0 6 9v6q-4 -4 -9 -4q-14 0 -14 16v16zM817 989l12 -39q6 -23 23 -16q18 4 12 24l-12 41q-6 20 -23 17q-15 -6 -12 -27zM825 -25v-16q0 -8 6 -8q9 0 9 8v16q0 9 -9 9q-6 0 -6 -9zM834 455l12 10v278l-12 -4v-284 zM852 475l12 12v261l-12 -3v-270zM860 891l47 14l4 -4l2 -4q0 -4 -2 -6l-34 -8l8 -27l24 6l4 -2q0 -1 1 -3q2 -2 2 -3.5t-3 -3.5l-26 -6l8 -29l35 10q2 0 6 -8q0 -4 -4 -4l-45 -12zM864 102v66h19q18 0 18 -23v-22q0 -21 -18 -21h-19zM872 111h11q10 0 10 12v22q0 13 -10 13 h-11v-47zM872 496l11 12v246l-11 -4v-254zM872 1096l58 16l2 131zM879 1042l26 9q28 7 41 -18t-8 -42l16 -20q6 -6 11 -6l2 2l6 -4l2 -5q2 -6 -4 -6q-9 -9 -29 11l-18 22l-13 -4l13 -39l-4 -4q-1 0 -3.5 -1t-4 -1.5t-3 0.5t-2.5 4zM883 6q0 4 4 4h4q2 0 4 -2l10 -24l10 24 l3 2h6q4 0 4 -4v-59q0 -2 -4 -2h-4q-2 0 -2 2v47l-9 -23q0 -2 -2 -2h-4q-2 0 -2 2l-10 23l2 -47q0 -2 -4 -2h-2q-4 0 -4 2v59zM891 516l10 12v230l-10 -2v-240zM899 1032l8 -35q16 2 22.5 8t2.5 19q0 3 -1 5.5t-3 4t-3.5 2.5t-4 1h-4t-4.5 -1t-4 -1t-5 -1zM909 537l9 8 l2 123l2 20v76l-13 -2v-225zM913 123v24q0 21 21 21q15 0 18 -16q0 -2 -2 -2l-4 -3q-2 3 -4 3q0 10 -8 10q-10 0 -10 -13v-24q0 -4 0.5 -6t1.5 -3.5t3 -2t5 -0.5q10 0 10 12l2 2h4q2 0 2 -2q0 -10 -4.5 -16.5t-13.5 -6.5q-10 0 -15.5 6.5t-5.5 16.5zM928 909l22 6 q23 8 33.5 -15t-8.5 -34l16 -18q4 -4 8 -4l2 2q5 -1 7 -8q0 -4 -4 -4l-3 -3q-1 -1 -3.5 -0.5t-3.5 0.5t-3.5 1.5t-3.5 2.5l-3.5 3.5t-4.5 3.5l-14 18l-11 -2l9 -33l-2 -4l-5 -2q-4 -2 -6 2zM938 -25q0 17 16 17q6 0 10.5 -4.5t4.5 -10.5v-6q0 -4 -4 -4l-19 -4v-4q0 -8 6 -8 q9 0 9 8l4 2h2q2 0 2 -4t-2 -7t-6 -5t-9 -2q-14 0 -14 16v16zM942 901l8 -31l11 2q16 6 10 21q-2 11 -11 11t-18 -3zM946 -25v-4l15 2v4q0 7 -7 7q-8 0 -8 -9zM963 123v24q0 8 5 14.5t15 6.5q8 0 13 -6.5t5 -14.5v-24q0 -10 -4.5 -16.5t-13.5 -6.5q-20 0 -20 23zM963 1065 l55 16l6 -4v-6q2 -4 -2 -4l-39 -12l8 -31l29 8q2 0 4 -1t2.5 -2t1 -4l0.5 -3q0 -4 -4 -4l-29 -8l9 -33l38 10l7 -2l2 -6q2 -4 -2 -6l-56 -15zM971 123q0 -12 12 -12q10 0 10 12v24q0 13 -10 13q-5 0 -8.5 -3.5t-3.5 -9.5v-24zM981 6l2 4h4q2 0 2 -4v-47q0 -8 6 -8h2l2 -2v-4 q0 -2 -2 -2h-2q-14 0 -14 16v47zM998.5 910.5q1.5 19.5 19.5 25.5q26 7 33 -14q4 -4 -7 -9q-5 0 -10 6.5t-12 2.5q-10 -2 -10 -13q4 -8 8 -10l27 -6q6 0 11 -5t7 -11q4 -14 -7.5 -26t-26.5 -10t-21 21l4 4l4 2q4 -1 7.5 -5.5t6.5 -6.5t8 0q13 2 13 16q-5 9 -13 9l-20 6 q-23 4 -21.5 23.5zM1006 6q0 4 2 4h4q2 -2 2 -4v-18q4 4 8 4q6 0 10 -5t4 -12v-16q0 -16 -14 -16q-4 0 -8 4l-2 -2h-4q-2 0 -2 2v59zM1014 -25v-16q0 -3 2.5 -5.5t5.5 -2.5q6 0 6 8v16q0 9 -6 9q-8 0 -8 -9zM1014 125v39l2 4h4q2 0 2 -4v-39q0 -14 10 -14t10 14v39l5 4h2 q4 0 4 -4v-39q0 -10 -5.5 -17.5t-15.5 -7.5q-18 0 -18 25zM1047 -27q0 19 16 19q14 0 14 -19v-14q0 -16 -14 -16q-16 0 -16 16v14zM1055 -27v-14q0 -8 8 -8q6 0 6 8v14q0 11 -6 11q-8 0 -8 -11zM1061 922q-4 15 6 24t23.5 6t17.5 -16q0 -9 -4 -20.5t-4 -18.5q3 -16 0 -16h-4 q-3 -2 -6 2.5t-3 9.5q-4 8 3 20t4 19q-3 11 -15 8q-5 -1 -6 -5t-1 -8.5t-1 -6.5l-6 -2q-4 0 -4 4zM1065 104v60q0 4 2 4h6q2 0 2 -2l21 -47v45q0 4 2 4h4q2 0 2 -4v-60q0 -2 -2 -2h-6q-2 0 -4 2l-19 48v-48q0 -2 -2 -2h-4q-2 0 -2 2zM1067 705l6 6v96l-6 -2v-100zM1081 721 l11 10v82l-11 -4v-88zM1087 -12l3 4h4q2 0 2 -4v-29q0 -8 8 -8t8 8v29q0 4 2 4h4q2 -2 2 -4v-41l-2 -2h-4q-2 0 -2 2q-4 -4 -10 -4t-10.5 4.5t-4.5 11.5v29zM1094 868q0 4 2 4l6 2q6 0 6 -4v-6q1 -1 -2 -4l-6 -2q-4 0 -4 4zM1100 739l12 13v65l-12 -2v-76zM1104 682l2 6l6 2 q4 0 4 -2l37 -74l-6 74q-2 4 2 4l6 2q5 0 6 -4l33 -65l-8 82l2 4l8 2l3 -1q1 -1 1 -3l8 -95l-4 -6l-12 -2q-2 -2 -4 2l-29 60l8 -66l-4 -6l-12 -2q-2 -2 -4 2zM1114 162v2q0 4 2 4h35l2 -4v-2q0 -4 -2 -4h-12v-54l-4 -2h-5q-2 0 -2 2v54h-12zM1118 762l12 10v51l-12 -2v-59z M1130 -12l3 4h4q2 0 2 -4q4 4 10 4t10 -5t4 -12v-28q0 -2 -4 -2h-2q-4 0 -4 2v28q0 9 -6 9q-8 0 -8 -9v-28q0 -2 -2 -2h-4q-3 0 -3 2v41zM1139 780l10 13v36l-10 -4v-45zM1143 561q-4 3 5 7q3 1 5 1q4 0 6 -2l27 -32l4 40l4 5l8 2q4 2 6 -2l25 -91q2 -6 -2 -6l-6 -2 q-4 0 -6 4l-19 70l-4 -35q0 -4 -2 -4l-6 -2h-2q-2 -1 -2 2l-23 29l21 -72q3 0 -3 -4q-3 -1 -5 -2q-5 -2 -7 4zM1157 803l12 10v21l-12 -3v-28zM1163 104v60l2 4h4q2 0 2 -4v-60l-2 -2h-4q-2 0 -2 2zM1174 -12q0 4 4 4h2q4 0 4 -4q4 4 8 4l4 -2v-4q-2 -2 -4 -2q-8 0 -8 -9 v-28q0 -2 -4 -2h-2q-4 0 -4 2v41zM1178 821l16 21l-16 -6v-15zM1184 104v60q0 4 2 4h6q2 0 4 -2l18 -47v45q1 4 3 4h4q2 0 2 -4v-60q0 -2 -2 -2h-7q-2 0 -2 2l-20 48v-48q0 -2 -2 -2h-4q-2 0 -2 2zM1198 -25q0 17 16 17q7 0 12 -4.5t5 -10.5v-6q0 -4 -4 -4l-19 -4v-4 q0 -8 6 -8q9 0 9 8l2 2h2q4 0 4 -4t-2 -7t-6 -5t-9 -2q-16 0 -16 16v16zM1208 -25v-4l15 2v4q0 7 -9 7q-6 0 -6 -9zM1212 719l25 6q27 7 37.5 -14.5t-6.5 -38.5l16 -19q3 -6 8 -6l2 2l6 -4v-4q2 -4 -2 -6h-2q-11 -5 -24 8l-19 23l-10 -4l10 -35l-2 -4q-10 -3 -12 0z M1227 590l49 14q5 0 7 -6q1 -1 1 -2q0 -4 -4 -6l-37 -10l10 -29l27 8l4 -4l2 -4q2 -4 -2 -6l-29 -8l11 -29l34 10q5 0 9 -8q0 -4 -4 -6l-50 -15zM1231 709l8 -33q2 1 5.5 2t5.5 1.5t5 2t4.5 3t3 3.5t1 5t-1.5 7q-3 20 -31 9zM1235 123v24q0 21 20 21q16 0 19 -16q0 -2 -2 -2 l-4 -3q-1 0 -2 1.5t-2 1.5q0 10 -9 10q-10 0 -10 -13v-24q0 -7 2 -9.5t8 -2.5q11 0 11 12v4h-11l-2 2v4q0 2 2 2h17q2 0 2 -2v-10q0 -23 -19 -23q-4 0 -8 2t-6.5 5t-4 7.5t-1.5 8.5zM1241 8h10l-2 -47h-6zM1241 -51q0 6 4 6q6 0 6 -6t-6 -6q-4 0 -4 6zM1282 104v5l2 2h6 q2 0 2 -2v-5l-2 -2h-6q-2 0 -2 2zM1290 735q1 5 8 8q5 0 7 -4l26 -90q0 -6 -8 -7q-1 -1 -2 -1q-4 0 -4 4zM1294 -25l74 45v-28h78v-31h-78v-31zM1298 606l2 4l7 2q4 2 6 -4l18 -67l-2 -4q-10 -3 -12 0zM1300 123v24q0 9 6 15t15 6q18 0 18 -16q0 -2 -2 -2l-2 -3l-4 3 q0 10 -10 10t-10 -13v-24q0 -7 2 -9.5t8 -2.5q10 0 10 12l2 2h4q2 0 2 -2q0 -23 -18 -23q-9 0 -15 7t-6 16zM1317 743q-2 5 2 5l51 14l6 -2v-6q2 -4 -2 -4l-18 -7l22 -81l-2 -5l-6 -2q-4 0 -6 2l-23 82q-4 0 -10.5 -2t-9 -1t-4.5 7zM1321 520q0 5 10 8q5 0 8 -10q0 -2 -4 -6 h-6q-2 -2 -6 2zM1350 123v24q0 8 5 14.5t15 6.5t15.5 -6.5t5.5 -14.5v-24q0 -10 -5.5 -16.5t-15.5 -6.5q-20 0 -20 23zM1360 123q0 -12 10 -12t10 12v24q0 13 -10 13t-10 -13v-24zM1389 768l51 14l4 -2q3 -10 0 -12l-37 -10l8 -29l27 8l4 -4l2 -4q2 -4 -2 -6l-27 -8l8 -29 l35 10l6 -2l2 -6q0 -4 -2 -6l-51 -14zM1403 104v60q0 4 2 4h6q2 0 2 -2l10 -25l11 25l4 2h4q4 0 4 -4v-60q0 -2 -4 -2h-2q-4 0 -4 2l2 48l-8 -23l-3 -2h-6q-2 0 -2 2l-8 23v-48q0 -2 -2 -2h-4q-2 0 -2 2z" />
<glyph unicode="A" horiz-adv-x="1075" d="M102 12l402 1409q2 5 6 8.5t7 4.5h3h49q13 -1 17 -13l387 -1409q0 -5 -3 -8t-6 -4h-3h-19q-14 0 -18 12l-154 543h-461l-157 -543q-2 -5 -6.5 -8t-8.5 -4h-4h-18q-13 0 -13 12zM317 604h443l-207 780h-16z" />
<glyph unicode="B" horiz-adv-x="983" d="M143 0v1434h283q213 0 313.5 -86t100.5 -267q0 -72 -23.5 -130t-64 -95.5t-86.5 -60t-99 -33.5q147 -6 230.5 -111t83.5 -256q0 -82 -23.5 -152t-71.5 -125t-129 -86.5t-188 -31.5h-326zM193 47h276q81 0 144.5 19.5t103.5 52t66.5 78t37 93t10.5 101.5q0 42 -5 78 t-18.5 77.5t-40 73.5t-64.5 59t-98 41.5t-136 14.5h-276v-688zM193 782h215q181 0 282 73.5t101 225.5q0 93 -27 155t-80 94t-113.5 44t-144.5 12h-233v-604z" />
<glyph unicode="C" horiz-adv-x="1056" d="M135 434v567q0 96 23 175t70 141t125.5 96.5t183.5 34.5q162 0 251.5 -78.5t122.5 -243.5q1 -5 -1 -9t-4 -5l-3 -2l-24 -6q-13 0 -15 10q-36 155 -109 221t-218 66q-170 0 -261.5 -99t-91.5 -303v-565q0 -401 355 -401q178 0 254.5 98t76.5 311q0 5 3 8.5t7 3.5l3 1h24 q13 -1 13 -13q0 -104 -19 -183.5t-61.5 -142.5t-118 -96.5t-182.5 -33.5t-186.5 34.5t-126 96.5t-69 141t-22.5 176z" />
<glyph unicode="D" horiz-adv-x="1087" d="M160 0v1434h377q102 0 178 -31.5t121.5 -89.5t67.5 -136t22 -176v-569q0 -93 -22 -170t-67.5 -136.5t-121.5 -92.5t-178 -33h-377zM209 47h328q162 0 251 95.5t89 289.5v569q0 385 -340 385h-328v-1339z" />
<glyph unicode="E" horiz-adv-x="964" d="M164 0v1434h665q5 0 8.5 -3t4.5 -7v-3v-22q-1 -13 -13 -13h-616v-630h473q5 0 8 -3t4 -7v-3v-20q0 -12 -12 -14h-473v-662h616q5 0 8.5 -3t4.5 -6v-3v-23q-1 -12 -13 -12h-665z" />
<glyph unicode="F" horiz-adv-x="974" d="M147 12v1422h666q5 0 8 -3t3 -7l1 -3v-22q0 -13 -12 -13h-616v-630h473q5 0 8 -3t4 -7v-3v-20q0 -12 -12 -14h-473v-697q0 -5 -3.5 -8t-6.5 -4h-3h-24q-13 0 -13 12z" />
<glyph unicode="G" horiz-adv-x="1046" d="M131 434v567q0 96 23 175t69.5 141t125 96.5t183.5 34.5q162 0 252 -78.5t123 -243.5q1 -5 -1 -9t-4 -5l-3 -2l-25 -6q-12 0 -14 10q-36 155 -109.5 221t-218.5 66q-170 0 -261 -99t-91 -303v-565q0 -401 355 -401q178 0 254.5 99t76.5 312v158h-370q-5 0 -8.5 3t-3.5 6 l-1 3v23q1 12 13 12h399q2 0 5.5 -0.5t9 -5.5t5.5 -14v-185q0 -82 -11 -149t-38.5 -126t-70 -98.5t-108.5 -62t-152 -22.5q-107 0 -186.5 34.5t-126 96.5t-69 141t-22.5 176z" />
<glyph unicode="H" horiz-adv-x="1124" d="M174 12v1409q0 5 3 8.5t6 4.5h3h23q12 -1 12 -13v-665h680v665q0 5 3 8.5t6 4.5h3h23q12 -1 12 -13v-1409q0 -5 -3 -8t-6 -4h-3h-23q-12 0 -12 12v697h-680v-697q0 -5 -3 -8t-6 -4h-3h-23q-12 0 -12 12z" />
<glyph unicode="I" horiz-adv-x="434" d="M193 12v1409q0 5 3 8.5t6 4.5h3h24q13 -1 13 -13v-1409q0 -5 -3 -8t-7 -4h-3h-24q-12 0 -12 12z" />
<glyph unicode="J" horiz-adv-x="630" d="M41 -2v22q0 13 12 13q48 0 98.5 10t108 38.5t102 71.5t74 116.5t29.5 166.5v985q0 5 3 8.5t6 4.5h3h25q12 -1 12 -13v-985q0 -205 -126.5 -327.5t-334.5 -122.5q-5 0 -8 3t-3 6z" />
<glyph unicode="K" horiz-adv-x="1064" d="M137 12v1409q0 5 3.5 8.5t6.5 4.5h3h24q12 -1 12 -13v-831l596 837q2 3 4.5 4.5t4.5 2.5h2h36q15 0 7 -13l-424 -608l340 -639q36 -69 70.5 -98t84.5 -29h43q5 0 8.5 -3t3.5 -6l1 -3v-23q-1 -12 -13 -12h-45q-67 0 -110 40t-86 120l-330 610l-193 -266v-492q0 -5 -3 -8 t-6 -4h-3h-24q-13 0 -13 12z" />
<glyph unicode="L" horiz-adv-x="866" d="M113 0v1421q0 5 3 8.5t6 4.5h3h25q12 -1 12 -13v-1374h577q5 0 8.5 -3t4.5 -6v-3v-23q-1 -12 -13 -12h-626z" />
<glyph unicode="M" horiz-adv-x="1222" d="M188 12v1409q0 5 3 8.5t7 4.5h3h49q14 -1 18 -13l344 -725l340 725q2 5 6.5 8.5t8.5 4.5h4h49q12 -1 12 -13v-1409q0 -5 -3 -8t-6 -4h-3h-25q-12 0 -12 12v1354l-344 -725q-2 -5 -6 -8t-7 -3l-3 -1h-21q-12 0 -16 12l-348 725v-1354q0 -5 -3 -8t-7 -4h-3h-24 q-13 0 -13 12z" />
<glyph unicode="N" horiz-adv-x="1142" d="M174 12v1409q0 5 3 8.5t6 4.5h3h52q12 -1 18 -13l666 -1376l-2 1376q0 5 3 8.5t6 4.5h3h24q13 -1 13 -13v-1409q0 -5 -3.5 -8t-6.5 -4h-3h-57q-12 0 -18 12l-664 1385l6 -1385q0 -5 -3 -8t-6 -4h-3h-25q-12 0 -12 12z" />
<glyph unicode="O" horiz-adv-x="1064" d="M143 420v594q0 434 389 434q390 0 390 -434v-594q0 -434 -390 -434q-389 0 -389 434zM193 420q0 -201 85.5 -294t253.5 -93t254 93t86 294v594q0 201 -86 294t-254 93t-253.5 -93t-85.5 -294v-594z" />
<glyph unicode="P" horiz-adv-x="1024" d="M164 12v1422h301q200 0 296.5 -110.5t96.5 -299.5v-57q0 -190 -96 -300t-297 -110h-252v-545q0 -5 -3 -8t-6 -4h-3h-25q-12 0 -12 12zM213 604h252q164 0 254 88.5t90 274.5v57q0 185 -90 273.5t-254 88.5h-252v-782z" />
<glyph unicode="Q" horiz-adv-x="1136" d="M125 420v594q0 214 98.5 324t290.5 110t290.5 -110t98.5 -324v-594q0 -185 -69 -289q39 -49 65 -66.5t62 -17.5h38q5 0 8.5 -3t4.5 -6v-3v-23q-1 -12 -13 -12h-47q-42 0 -76.5 22t-70.5 72q-97 -108 -291 -108q-389 0 -389 434zM174 420q0 -201 86 -294t254 -93 q176 0 258 98l-135 176q-3 4 0 7t8 3h39q6 0 10 -6l107 -141q53 92 53 250v594q0 196 -83.5 291.5t-256.5 95.5t-256.5 -95.5t-83.5 -291.5v-594z" />
<glyph unicode="R" horiz-adv-x="1032" d="M127 12v1422h334q178 0 274 -100t96 -279v-11q0 -191 -72.5 -287.5t-211.5 -119.5l223 -463q31 -54 81 -89.5t103 -35.5h4q5 0 8.5 -3t3.5 -6l1 -3v-25q-1 -12 -13 -12h-6q-55 0 -105 29.5t-76 60t-46 64.5l-227 477h-322v-619q0 -5 -3 -8t-6 -4h-3h-25q-12 0 -12 12z M176 678h287q178 0 248.5 91t70.5 275v11q0 165 -87.5 248t-233.5 83h-285v-708z" />
<glyph unicode="S" horiz-adv-x="987" d="M86 389q0 5 3 8t6 3l3 1h25q12 0 12 -12q0 -164 103 -258t251 -94q177 0 269 90.5t92 228.5q0 49 -21 94.5t-59.5 84t-82 69t-99.5 60.5l-264 141q-222 117 -222 299q0 160 111 252t276 92q92 0 164 -25.5t118.5 -71.5t73.5 -104t38 -129q1 -5 -1.5 -9t-5.5 -5l-2 -2 l-24 -6q-12 0 -14 10q-22 142 -101 217.5t-246 75.5q-79 0 -140.5 -20t-97.5 -50.5t-59.5 -72t-31.5 -79.5t-8 -79q0 -68 43 -129t124 -105l322 -176q258 -140 258 -332q0 -167 -108.5 -267.5t-301.5 -100.5q-52 0 -104.5 11.5t-107 40.5t-96.5 73t-68.5 115.5t-26.5 160.5z " />
<glyph unicode="T" horiz-adv-x="978" d="M78 1396v3v22q0 13 12 13h799q5 0 8 -3t3 -7l1 -3v-22q0 -13 -12 -13h-375v-1374q0 -5 -3 -8t-6 -4h-3h-25q-12 0 -12 12v1374h-375q-5 0 -8 3t-4 7z" />
<glyph unicode="U" horiz-adv-x="1058" d="M141 514v907q0 5 3.5 8.5t6.5 4.5h3h24q12 -1 12 -13v-907q0 -243 83 -362t259 -119q161 0 248.5 121.5t87.5 359.5v907q0 5 3 8.5t7 4.5h3h24q13 -1 13 -13v-907q0 -113 -21 -205.5t-65 -166.5t-120 -115t-180 -41q-391 0 -391 528z" />
<glyph unicode="V" horiz-adv-x="1087" d="M104 1421q-1 3 -1 5q0 8 8 8h32q10 0 13 -11l391 -1374h8l379 1374q3 11 12 11h31q7 0 7 -7q0 -2 -1 -6l-391 -1409q-2 -5 -6 -8t-8 -4h-3h-49q-12 0 -16 12z" />
<glyph unicode="W" horiz-adv-x="1529" d="M125 1421q-1 3 -1 6q0 7 7 7h33q9 0 12 -11l281 -1378l276 1190q1 5 4.5 8t6.5 3l4 1h36q13 0 15 -12l276 -1188l279 1376q3 11 12 11h33q7 0 7 -7q0 -2 -1 -6l-289 -1409q-1 -5 -5 -8t-7 -4h-4h-49q-13 0 -17 12l-268 1153l-268 -1153q-2 -5 -6 -8t-8 -4h-3h-49 q-12 0 -16 12z" />
<glyph unicode="X" horiz-adv-x="1159" d="M115 2.5q0 2.5 4 9.5l430 764l-359 645q-6 13 7 13h30q11 0 15 -11l333 -608l340 608q4 11 15 11h31q13 0 6 -13l-365 -647l436 -762q3 -4 3 -7q0 -5 -9 -5h-31q-8 0 -14 10l-412 721l-405 -721q-6 -10 -16 -10h-31q-8 0 -8 2.5z" />
<glyph unicode="Y" horiz-adv-x="1091" d="M141 1421q-2 4 -2 7q0 6 8 6h33q10 0 13 -11l364 -919h10l332 919q4 11 14 11h31q8 0 8 -6q0 -3 -2 -7l-510 -1411q-5 -10 -12 -10h-33q-9 0 -6 12l154 441h-11q-6 0 -8 8z" />
<glyph unicode="Z" horiz-adv-x="997" d="M82 9v3v37q0 11 6 19l758 1318h-752q-5 0 -8 3t-4 7v3v22q0 13 12 13h789q5 0 8 -3t3 -7l1 -3v-51q0 -10 -6 -18l-758 -1305h772q5 0 8 -3t3 -6l1 -3v-23q0 -12 -12 -12h-809q-5 0 -8 3t-4 6z" />
<glyph unicode="[" horiz-adv-x="532" d="M168 -434v2068h184q5 0 8.5 -3t3.5 -6l1 -3v-25q-1 -12 -13 -12h-135v-1970h135q5 0 8.5 -3t3.5 -6l1 -3v-25q-1 -12 -13 -12h-184z" />
<glyph unicode="\" horiz-adv-x="587" d="M5.5 1503q2.5 2 8.5 2h29q8 0 12 -10l525 -1554q4 -13 -9 -13h-28q-9 1 -13 11l-524 1554q-3 8 -0.5 10z" />
<glyph unicode="]" horiz-adv-x="501" d="M152 -397q0 12 12 12h135v1970h-135q-5 0 -8 3t-4 6v3v25q0 12 12 12h184v-2068h-184q-5 0 -8 3t-4 6v3v25z" />
<glyph unicode="_" horiz-adv-x="1073" d="M70 -63q0 12 12 12h909q5 0 8.5 -3t4.5 -6v-3v-25q-1 -12 -13 -12h-905q-5 0 -9 3t-5 6l-2 3v25z" />
<glyph unicode="a" horiz-adv-x="872" d="M119 238q0 111 51 172.5t178 91.5l357 82v123q0 132 -69.5 208t-195.5 76q-121 0 -183 -53t-62 -176q0 -5 -3.5 -8t-6.5 -4h-3h-24q-13 0 -13 12q0 135 78.5 205.5t216.5 70.5q144 0 229 -90.5t85 -240.5v-695q0 -5 -3 -8t-7 -4h-3h-24q-12 0 -12 12v160 q-31 -89 -110 -137.5t-194 -48.5q-132 0 -207 67.5t-75 184.5zM168 252q0 -219 233 -219q147 0 226.5 83.5t79.5 207.5v208l-365 -81q-57 -13 -94 -35t-53.5 -51t-21.5 -54t-5 -59z" />
<glyph unicode="b" horiz-adv-x="925" d="M147 12v1409q0 5 3.5 8.5t6.5 4.5h3h22q13 -1 13 -13v-565q7 24 27 53t53 59t86 50t114 20q135 0 219 -87t84 -244v-404q0 -140 -84.5 -228.5t-208.5 -88.5q-120 0 -194.5 54.5t-95.5 121.5v-150q0 -5 -3.5 -8t-6.5 -4h-3h-22q-13 0 -13 12zM193 303q0 -28 7 -60 t27 -70.5t50.5 -68.5t83.5 -50.5t120 -20.5q112 0 180 81t68 187v406q0 128 -68.5 206t-185.5 78q-130 0 -206 -84t-76 -200v-404z" />
<glyph unicode="c" horiz-adv-x="851" d="M111 354v303q0 179 80 280t243 101q70 0 124.5 -21t87 -56t51 -72.5t26.5 -79.5q2 -10 -6 -14l-29 -7q-12 -1 -14 9q-6 35 -19.5 65t-39 61t-72.5 49.5t-109 18.5q-135 0 -204.5 -84.5t-69.5 -249.5v-303q0 -143 67 -232t201 -89q67 0 119 22.5t82 60t45.5 80.5t15.5 89 q0 5 3 8t6 3l3 1h25q12 0 12 -12q0 -50 -17 -100t-51.5 -96t-97.5 -74.5t-145 -28.5q-81 0 -143 28.5t-99.5 79.5t-56 116.5t-18.5 143.5z" />
<glyph unicode="d" horiz-adv-x="905" d="M131 303v406q0 144 79.5 236.5t227.5 92.5q105 0 180 -54.5t97 -127.5v565q0 5 3 8.5t6 4.5h3h23q12 -1 12 -13v-1409q0 -5 -3 -8t-6 -4h-3h-23q-12 0 -12 12v150q-29 -84 -106 -130t-181 -46q-130 0 -213.5 90.5t-83.5 226.5zM178 303q0 -106 69 -188t181 -82 q67 0 120 19.5t84 49t51 68t27 71t7 62.5v404q0 116 -75.5 200t-205.5 84q-118 0 -188 -78.5t-70 -205.5v-404z" />
<glyph unicode="e" horiz-adv-x="913" d="M141 285v428q0 147 82.5 236t251.5 89q129 0 213 -73t84 -197v-209q0 -12 -14 -14l-568 -111v-151q0 -114 70.5 -182t196.5 -68q122 0 194 60t72 169q0 5 3 8t6 4h3h23q12 0 12 -12q0 -127 -88.5 -201.5t-224.5 -74.5q-145 0 -230.5 83t-85.5 216zM190 483l535 105v174 q0 112 -73 170.5t-189 58.5q-74 0 -129.5 -25t-85.5 -66.5t-44 -89t-14 -99.5v-228z" />
<glyph unicode="f" horiz-adv-x="567" d="M82 968v3v22q0 13 12 13h103v135q0 157 58.5 225t205.5 68h28q5 0 8.5 -3t4.5 -7v-3v-22q-1 -13 -13 -13h-28q-69 0 -113 -15t-66.5 -48.5t-30 -74.5t-7.5 -107v-135h270q5 0 8 -3t4 -7v-3v-22q0 -13 -12 -13h-270v-946q0 -5 -3 -8t-7 -4h-3h-22q-12 0 -12 12v946h-103 q-5 0 -8 3t-4 7z" />
<glyph unicode="g" horiz-adv-x="970" d="M170 303v406q0 144 79.5 236.5t227.5 92.5q105 0 180 -54.5t97 -127.5v170q0 5 3 8t6 4h3h22q13 0 13 -12v-1110q0 -96 -25 -165.5t-70 -109t-99.5 -57.5t-121.5 -18q-151 0 -230 67t-79 195v25q0 5 3 8t6 3l3 1h23q12 0 12 -12v-25q0 -215 262 -215q125 0 197 73t72 232 v244q-29 -84 -106 -130t-181 -46q-130 0 -213.5 90.5t-83.5 226.5zM217 303q0 -106 69 -188t181 -82q67 0 120 19.5t84 49t51 68t27 71t7 62.5v404q0 116 -75.5 200t-205.5 84q-118 0 -188 -78.5t-70 -205.5v-404z" />
<glyph unicode="h" horiz-adv-x="929" d="M150 12v1409q0 5 3 8.5t6 4.5h3h22q13 -1 13 -13v-565q2 19 19 47.5t48 60t85.5 53t119.5 21.5q141 0 226 -86t85 -245v-695q0 -5 -3 -8t-6 -4h-3h-25q-12 0 -12 12v695q0 129 -69 206.5t-193 77.5q-121 0 -196.5 -74.5t-75.5 -209.5v-695q0 -5 -3.5 -8t-6.5 -4h-3h-22 q-12 0 -12 12z" />
<glyph unicode="i" horiz-adv-x="423" d="M184 1384v37q0 5 3 8.5t7 4.5h3h30q13 -1 13 -13v-37q0 -5 -3 -8t-7 -4h-3h-30q-13 0 -13 12zM188 12v1000q0 5 3 8t7 4h3h22q13 0 13 -12v-1000q0 -5 -3 -8t-7 -4h-3h-22q-13 0 -13 12z" />
<glyph unicode="j" horiz-adv-x="425" d="M-41 -399q0 12 12 12h25q113 0 164 62.5t51 183.5v1153q0 5 3 8t6 4h3h23q12 0 12 -12v-1153q0 -293 -262 -293h-25q-5 0 -8 3t-3 6l-1 3v23zM207 1384v37q0 5 3 8.5t6 4.5h3h31q12 -1 12 -13v-37q0 -5 -3 -8t-6 -4h-3h-31q-12 0 -12 12z" />
<glyph unicode="k" horiz-adv-x="837" d="M143 12v1409q0 5 3.5 8.5t6.5 4.5h3h24q13 -1 13 -13v-958l471 555q2 3 4.5 4.5t3.5 1.5h2h37q16 0 6 -12l-330 -394l365 -606q2 -4 2 -7q0 -5 -9 -5h-32q-7 0 -11 6l-350 576l-159 -189v-381q0 -5 -3.5 -8t-6.5 -4h-3h-24q-13 0 -13 12z" />
<glyph unicode="l" horiz-adv-x="503" d="M123 279v1142q0 5 3 8.5t6 4.5h3h23q12 -1 12 -13v-1142q0 -121 51 -183.5t164 -62.5h25q5 0 8 -3.5t4 -6.5v-3v-22q0 -12 -12 -12h-25q-262 0 -262 293z" />
<glyph unicode="m" horiz-adv-x="1353" d="M125 12v1000q0 5 3 8t6 4h3h25q12 0 12 -12v-156q54 182 272 182q35 0 70 -6.5t72.5 -22.5t67 -47t42.5 -75q17 46 47.5 78t68 46.5t69.5 20.5t65 6q279 0 279 -331v-695q0 -5 -3.5 -8t-6.5 -4h-3h-24q-12 0 -12 12v695q0 139 -50 211.5t-180 72.5q-94 0 -158.5 -57 t-64.5 -156v-766q0 -5 -3 -8t-6 -4h-3h-25q-12 0 -12 12v766q0 93 -56 153t-174 60q-127 0 -199.5 -75t-72.5 -209v-695q0 -5 -3 -8t-6 -4h-3h-25q-12 0 -12 12z" />
<glyph unicode="n" horiz-adv-x="921" d="M145 12v1000q0 5 3.5 8t6.5 4h3h22q13 0 13 -12v-156q54 182 272 182q141 0 226 -86t85 -245v-695q0 -5 -3 -8t-6 -4h-3h-25q-12 0 -12 12v695q0 129 -69 206.5t-193 77.5q-127 0 -199.5 -75t-72.5 -209v-695q0 -5 -3.5 -8t-6.5 -4h-3h-22q-13 0 -13 12z" />
<glyph unicode="o" horiz-adv-x="854" d="M111 352v305q0 177 78 279t239 102q160 0 237.5 -102t77.5 -279v-305q0 -164 -79 -265t-238 -101h2q-159 0 -238 101t-79 265zM160 352q0 -146 66.5 -232.5t201.5 -86.5q134 0 200 86.5t66 232.5v305q0 334 -268 334h2q-268 0 -268 -334v-305z" />
<glyph unicode="p" horiz-adv-x="925" d="M147 -422v1434q0 5 3.5 8t6.5 4h3h22q13 0 13 -12v-156q16 55 48 93.5t72.5 56.5t75.5 25t72 7q153 0 234 -91.5t81 -239.5v-385q0 -148 -78.5 -242t-224.5 -94q-17 0 -38.5 2.5t-59 12.5t-69.5 27.5t-64 52.5t-49 81v-584q0 -5 -3.5 -8t-6.5 -4h-3h-22q-13 0 -13 12z M193 299q0 -30 8.5 -63t29.5 -70t52 -66t81.5 -48t112.5 -19q112 0 182 78.5t70 210.5v385q0 138 -72.5 211t-195.5 73q-120 0 -194 -74.5t-74 -209.5v-408z" />
<glyph unicode="q" horiz-adv-x="897" d="M123 303v406q0 152 78.5 240.5t228.5 88.5q105 0 180 -54.5t97 -127.5v156q0 5 3 8t6 4h3h22q13 0 13 -12v-1434q0 -5 -3 -8t-7 -4h-3h-22q-12 0 -12 12v584q-29 -84 -106 -130t-181 -46q-130 0 -213.5 90.5t-83.5 226.5zM170 303q0 -106 69 -188t181 -82q67 0 120 19.5 t84 49t51 68t27 71t7 62.5v404q0 116 -75.5 200t-205.5 84q-120 0 -189 -74.5t-69 -209.5v-404z" />
<glyph unicode="r" horiz-adv-x="536" d="M158 12v1000q0 5 3 8t6 4h3h25q12 0 12 -12v-152q15 65 85.5 121.5t184.5 56.5q5 0 8 -3t3 -6l1 -3v-22q0 -13 -12 -13q-51 0 -97 -15.5t-86 -47.5t-63.5 -88.5t-23.5 -130.5v-697q0 -5 -3 -8t-6 -4h-3h-25q-12 0 -12 12z" />
<glyph unicode="s" horiz-adv-x="827" d="M102 252q0 5 3 8t7 4h3l22 2q13 0 13 -12q9 -99 89 -160t197 -61q98 0 170 53t72 141q0 138 -154 219l-250 129q-141 72 -141 220q0 30 8.5 61.5t30.5 64.5t53.5 58.5t82.5 42t114 16.5q40 0 73.5 -4.5t72.5 -18.5t67.5 -37.5t52 -65.5t33.5 -99q1 -5 -1.5 -8t-5.5 -3 l-3 -1l-23 -4q-8 -2 -12 10q-25 99 -81.5 141.5t-172.5 42.5q-60 0 -106 -15t-71 -37t-40.5 -50t-20 -49.5t-4.5 -40.5q0 -123 103 -176l274 -142q168 -87 168 -254q0 -101 -81 -171t-214 -70q-81 0 -145 26t-101 67.5t-57.5 85.5t-24.5 87z" />
<glyph unicode="t" horiz-adv-x="620" d="M100 966v3v22q1 13 13 13h102v376q0 5 3 8.5t6 3.5l3 1h23q12 -1 12 -13v-376h240q5 0 8 -3t4 -7v-3v-22q0 -13 -12 -13h-240v-663q0 -246 238 -246h8q5 0 8 -3t4 -6v-3v-23q0 -12 -12 -12h-8q-79 0 -136.5 24t-89 66t-45.5 92.5t-14 110.5v663h-102q-5 0 -8.5 3t-4.5 7z " />
<glyph unicode="u" horiz-adv-x="911" d="M125 338v674q0 5 3 8t6 4h3h25q12 0 12 -12v-674q0 -132 67.5 -218.5t188.5 -86.5q71 0 128 23.5t89.5 57t54.5 75t29.5 73.5t7.5 57v693q0 5 3.5 8t6.5 4h3h22q12 0 12 -12v-1000q0 -5 -3 -8t-6 -4h-3h-22q-13 0 -13 12v172q-81 -198 -309 -198q-138 0 -221.5 95 t-83.5 257z" />
<glyph unicode="v" horiz-adv-x="802" d="M70 1022q2 2 8 2h31q8 0 10 -10l282 -967l281 969q1 4 3.5 6t4.5 2h2h31h5l4 -4q1 -1 0 -2q0 -2 -1 -6l-295 -1000q-2 -5 -5.5 -8t-6.5 -4h-2h-45q-11 0 -15 12l-292 1000q-2 4 -2 7q1 2 2 3z" />
<glyph unicode="w" horiz-adv-x="1273" d="M88 1022q2 2 8 2h31q8 0 10 -10l217 -967l250 965q2 5 5.5 8t6.5 4h2h35q11 0 15 -12l256 -965l211 967l10 10h31h6q1 -2 3 -4q1 -1 1 -2q0 -2 -2 -6l-226 -1000q-2 -5 -5.5 -8t-6.5 -4h-2h-41q-10 0 -14 12l-252 967l-248 -967q-2 -5 -5.5 -8t-5.5 -4h-3h-41 q-11 0 -15 12l-231 1000q-2 4 -2 7q1 2 2 3z" />
<glyph unicode="x" horiz-adv-x="784" d="M66 12l301 531l-267 469q-3 8 0 10t9 2h30q11 0 17 -10l239 -432l242 432q2 3 4 5t4 3t4 1.5t3 0.5h1h31q14 0 8 -12l-272 -471l299 -529q2 -4 2 -6q0 -6 -10 -6h-35h-2l-10 10l-269 490l-274 -490q-3 -5 -6 -7.5t-5 -2.5h-1h-35q-10 0 -10 6q0 2 2 6z" />
<glyph unicode="y" horiz-adv-x="808" d="M70 1022q2 2 8 2h31q8 0 10 -10l278 -967h15l274 969q1 4 3.5 6t4.5 2h2h33q4 0 5.5 -0.5t3.5 -3.5q1 0 1 -2t-2 -6l-362 -1254q-58 -192 -234 -192q-5 0 -8 3t-3 6l-1 3v23q0 12 12 12h9q59 0 105 37q49 39 69 110l67 240h-22q-11 0 -15 12l-284 1000q-2 4 -2 7q0 2 2 3 z" />
<glyph unicode="z" horiz-adv-x="880" d="M94 9v3v37q0 11 6 19l633 909h-600q-5 0 -8 3t-3 6l-1 3v23q0 12 12 12h633q5 0 8 -3t4 -6v-3v-35q0 -11 -6 -19l-633 -911h635q5 0 8 -3t4 -6v-3v-23q0 -12 -12 -12h-668q-5 0 -8 3t-4 6z" />
<glyph unicode="&#x2000;" horiz-adv-x="885" />
<glyph unicode="&#x2001;" horiz-adv-x="1770" />
<glyph unicode="&#x2002;" horiz-adv-x="885" />
<glyph unicode="&#x2003;" horiz-adv-x="1770" />
<glyph unicode="&#x2004;" horiz-adv-x="590" />
<glyph unicode="&#x2005;" horiz-adv-x="442" />
<glyph unicode="&#x2006;" horiz-adv-x="295" />
<glyph unicode="&#x2007;" horiz-adv-x="295" />
<glyph unicode="&#x2008;" horiz-adv-x="221" />
<glyph unicode="&#x2009;" horiz-adv-x="354" />
<glyph unicode="&#x200a;" horiz-adv-x="98" />
<glyph unicode="&#x2018;" horiz-adv-x="286" d="M95.5 1285.5q-1.5 3.5 0.5 8.5l49 209q1 5 4 8.5t6 4.5h3h20q12 -1 12 -13v-215q0 -5 -3 -8t-6 -4h-3h-72h-1.5t-3 1t-3.5 3t-2.5 5.5z" />
<glyph unicode="&#x2019;" horiz-adv-x="286" d="M94 1288v215q0 5 3 8.5t6 4.5h3h72l8 -4q4 -5 2 -15l-49 -209q-1 -5 -4 -8t-5 -4h-3h-21q-12 0 -12 12z" />
<glyph unicode="&#x202f;" horiz-adv-x="354" />
<glyph unicode="&#x205f;" horiz-adv-x="442" />
<glyph unicode="&#xe000;" horiz-adv-x="1024" d="M0 0v1024h1024v-1024h-1024z" />
</font>
</defs>
</svg>
