<?xml version="1.0" encoding="utf-8"?>
<!-- Generator: Adobe Illustrator 19.1.0, SVG Export Plug-In . SVG Version: 6.00 Build 0)  -->
<svg version="1.1" id="Capa_1" xmlns="http://www.w3.org/2000/svg" xmlns:xlink="http://www.w3.org/1999/xlink" x="0px" y="0px"
	 viewBox="-79 170.3 380.7 380.7" style="enable-background:new -79 170.3 380.7 380.7;" xml:space="preserve">
<style type="text/css">
	.st0{fill:none;}
	.st1{fill:#8A0D04;}
	.st2{fill:#FFD215;}
</style>
<g>
	<path class="st0" d="M111.4,184.5c-97.1,0-176.2,79-176.2,176.2c0,97.1,79,176.2,176.2,176.2c97.1,0,176.2-79,176.2-176.2
		C287.5,263.5,208.5,184.5,111.4,184.5z M191.9,499.4l-4.3-82.8c0,0,0.2-0.1,0.4-0.2c12.9-3,24-11.3,31-21.6
		c8.7-13-6.7-128.1-6.7-128.1h-7.7v108h-9.9v-108h-11.3v108h-9.9v-108h-10.9v108h-9.9v-108h-10c0,0-15.4,115.1-6.7,128.1
		c7,10.5,18.2,18.8,31.3,21.7l-5,96.2c-16.1,5.4-33.2,8.4-51,8.4c-13.3,0-26.1-1.8-38.4-4.8l-5.6-108c0,0,11.5-4.2,11.6-4.2
		c20-8.8,34.6-34.8,34.6-68.6c0-36.8-28.6-68.5-56.2-68.8c0,0,0,0,0,0c0,0,0,0-0.1,0c-27.6,0.3-56.2,32-56.2,68.8
		c0,33.7,14.6,59.7,34.6,68.6c2.1,1,11.5,4.1,11.5,4.1l-5,97.1c-54-25.8-91.4-80.8-91.4-144.7c0-88.7,71.9-160.5,160.5-160.5
		c88.7,0,160.5,71.9,160.6,160.5C271.9,419.9,239.7,471.6,191.9,499.4z M22.3,342.4c0,2.3,0.1,4.8,0.4,7.3c0.2,2.2,0.8,4.8,1.4,6.9
		c3.4,9.3,5.9,18.4,10.1,24.9c0.9,1.3,1.8,2.5,2.6,3.7c1.1,1.6,2.1,3,2.9,4c1.3,1.6,2.3,2.5,2.3,2.5c0.7,0.6,1,1.5,0.6,2.2
		c-0.4,0.7-1.2,1.1-2.1,0.9c-0.2,0-1.4-0.4-3.1-1.3c-0.4-0.2-0.8-0.5-1.3-0.8l-0.7-0.5c-2.1-1.4-4.9-3.4-7.7-6.2
		c-8.8-8.6-11.2-17.2-14.3-26.2c-0.9-3.1-1.4-5.9-1.6-9.1c-0.1-2.8,0-5.6,0.2-8.6c0.6-5.8,2-10.9,3.1-14.8c1.3-4.4,3.2-8,4.5-10.2
		c1.6-2.6,2.7-4.3,2.7-4.3c0.5-0.8,1.6-1,2.5-0.5c1,0.6,1.4,1.5,1.2,2.3c0,0-0.8,2.3-1.4,4.6c-0.8,2.2-1.2,5.4-1.7,9.6
		C22.5,332.5,22.2,337.1,22.3,342.4z"/>
	<path class="st1" d="M111.4,200.1c-88.7,0-160.5,71.9-160.5,160.5c0,63.9,37.4,118.9,91.4,144.7l5-97.1c0,0-9.5-3.1-11.5-4.1
		c-20-8.8-34.6-34.8-34.6-68.6c0-36.8,28.6-68.5,56.2-68.8c0,0,0,0,0.1,0c0,0,0,0,0,0c27.6,0.3,56.2,32,56.2,68.8
		c0,33.7-14.6,59.7-34.6,68.6c-0.2,0.1-11.6,4.2-11.6,4.2l5.6,108c12.3,3,25.1,4.8,38.4,4.8c17.9,0,35-3,51-8.4l5-96.2
		c-13.1-2.9-24.3-11.2-31.3-21.7c-8.7-13,6.7-128.1,6.7-128.1h10v108h9.9v-108h10.9v108h9.9v-108h11.3v108h9.9v-108h7.7
		c0,0,15.4,115.1,6.7,128.1c-6.9,10.4-18,18.7-31,21.6c-0.2,0.1-0.4,0.2-0.4,0.2l4.3,82.8c47.8-27.8,80.1-79.5,80.1-138.8
		C271.9,272,200,200.1,111.4,200.1z"/>
	<path class="st1" d="M24.7,319.3c0.6-2.3,1.3-4.6,1.4-4.6c0.2-0.9-0.2-1.8-1.2-2.3c-0.9-0.5-2-0.2-2.5,0.5c0,0-1.1,1.7-2.7,4.3
		c-1.3,2.2-3.2,5.8-4.5,10.2c-1.1,3.9-2.5,9-3.1,14.8c-0.3,3-0.3,5.8-0.2,8.6c0.2,3.2,0.7,6,1.6,9.1c3.2,9,5.6,17.6,14.3,26.2
		c2.8,2.8,5.6,4.8,7.7,6.2l0.7,0.5c0.4,0.3,0.9,0.6,1.3,0.8c1.7,0.9,2.9,1.2,3.1,1.3c0.9,0.2,1.7-0.2,2.1-0.9
		c0.3-0.7,0.1-1.6-0.6-2.2c0,0-1-0.9-2.3-2.5c-0.9-1-1.8-2.4-2.9-4c-0.8-1.1-1.7-2.4-2.6-3.7c-4.3-6.5-6.7-15.6-10.1-24.9
		c-0.7-2-1.2-4.6-1.4-6.9c-0.3-2.6-0.4-5-0.4-7.3c-0.1-5.3,0.1-9.9,0.6-13.6C23.5,324.6,23.9,321.5,24.7,319.3z"/>
	<path class="st2" d="M111.4,170.3C6.4,170.3-79,255.7-79,360.6C-79,465.6,6.4,551,111.4,551c105,0,190.3-85.4,190.3-190.4
		C301.7,255.7,216.3,170.3,111.4,170.3z M111.4,536.8c-97.1,0-176.2-79-176.2-176.2c0-97.1,79-176.2,176.2-176.2
		c97.1,0,176.2,79,176.2,176.2C287.5,457.8,208.5,536.8,111.4,536.8z"/>
</g>
</svg>
