<?xml version="1.0" encoding="utf-8"?>
<!-- Generator: Adobe Illustrator 19.1.0, SVG Export Plug-In . SVG Version: 6.00 Build 0)  -->
<svg version="1.1" id="Capa_1" xmlns="http://www.w3.org/2000/svg" xmlns:xlink="http://www.w3.org/1999/xlink" x="0px" y="0px"
	 viewBox="-79 170.3 380.7 380.7" style="enable-background:new -79 170.3 380.7 380.7;" xml:space="preserve">
<style type="text/css">
	.st0{fill:#FFFFFF;}
	.st1{fill:#FFD215;}
	.st2{fill:none;}
	.st3{fill:#8A0D04;}
	.st4{fill:#293642;}
</style>
<circle class="st0" cx="114.6" cy="360.9" r="179.4"/>
<path class="st1" d="M111.4,170.3C6.4,170.3-79,255.7-79,360.6C-79,465.6,6.4,551,111.4,551c105,0,190.3-85.4,190.3-190.4
	C301.7,255.7,216.3,170.3,111.4,170.3z M111.4,536.8c-97.1,0-176.2-79-176.2-176.2c0-97.1,79-176.2,176.2-176.2
	c97.1,0,176.2,79,176.2,176.2C287.5,457.8,208.5,536.8,111.4,536.8z"/>
<circle class="st0" cx="586.8" cy="360.9" r="179.4"/>
<g>
	<path class="st2" d="M583.6,184.5c-97.1,0-176.2,79-176.2,176.2c0,97.1,79,176.2,176.2,176.2c97.1,0,176.2-79,176.2-176.2
		C759.7,263.5,680.7,184.5,583.6,184.5z M664.1,499.4l-4.3-82.8c0,0,0.2-0.1,0.4-0.2c12.9-3,24-11.3,31-21.6
		c8.7-13-6.7-128.1-6.7-128.1h-7.7v108h-9.9v-108h-11.3v108h-9.9v-108h-10.9v108H625v-108h-10c0,0-15.4,115.1-6.7,128.1
		c7,10.5,18.2,18.8,31.3,21.7l-5,96.2c-16.1,5.4-33.2,8.4-51,8.4c-13.3,0-26.1-1.8-38.4-4.8l-5.6-108c0,0,11.5-4.2,11.6-4.2
		c20-8.8,34.6-34.8,34.6-68.6c0-36.8-28.6-68.5-56.2-68.8c0,0,0,0,0,0c0,0,0,0-0.1,0c-27.6,0.3-56.2,32-56.2,68.8
		c0,33.7,14.6,59.7,34.6,68.6c2.1,1,11.5,4.1,11.5,4.1l-5,97.1c-54-25.8-91.4-80.8-91.4-144.7c0-88.7,71.9-160.5,160.5-160.5
		c88.7,0,160.5,71.9,160.6,160.5C744.1,419.9,711.9,471.6,664.1,499.4z M494.5,342.4c0,2.3,0.1,4.8,0.4,7.3c0.2,2.2,0.8,4.8,1.4,6.9
		c3.4,9.3,5.9,18.4,10.1,24.9c0.9,1.3,1.8,2.5,2.6,3.7c1.1,1.6,2.1,3,2.9,4c1.3,1.6,2.3,2.5,2.3,2.5c0.7,0.6,1,1.5,0.6,2.2
		c-0.4,0.7-1.2,1.1-2.1,0.9c-0.2,0-1.4-0.4-3.1-1.3c-0.4-0.2-0.8-0.5-1.3-0.8l-0.7-0.5c-2.1-1.4-4.9-3.4-7.7-6.2
		c-8.8-8.6-11.2-17.2-14.3-26.2c-0.9-3.1-1.4-5.9-1.6-9.1c-0.1-2.8,0-5.6,0.2-8.6c0.6-5.8,2-10.9,3.1-14.8c1.3-4.4,3.2-8,4.5-10.2
		c1.6-2.6,2.7-4.3,2.7-4.3c0.5-0.8,1.6-1,2.5-0.5c1,0.6,1.4,1.5,1.2,2.3c0,0-0.8,2.3-1.4,4.6c-0.8,2.2-1.2,5.4-1.7,9.6
		C494.7,332.5,494.4,337.1,494.5,342.4z"/>
	<path class="st3" d="M583.6,200.1C494.9,200.1,423,272,423,360.6c0,63.9,37.4,118.9,91.4,144.7l5-97.1c0,0-9.5-3.1-11.5-4.1
		c-20-8.8-34.6-34.8-34.6-68.6c0-36.8,28.6-68.5,56.2-68.8c0,0,0,0,0.1,0c0,0,0,0,0,0c27.6,0.3,56.2,32,56.2,68.8
		c0,33.7-14.6,59.7-34.6,68.6c-0.2,0.1-11.6,4.2-11.6,4.2l5.6,108c12.3,3,25.1,4.8,38.4,4.8c17.9,0,35-3,51-8.4l5-96.2
		c-13.1-2.9-24.3-11.2-31.3-21.7c-8.7-13,6.7-128.1,6.7-128.1h10v108h9.9v-108h10.9v108h9.9v-108h11.3v108h9.9v-108h7.7
		c0,0,15.4,115.1,6.7,128.1c-6.9,10.4-18,18.7-31,21.6c-0.2,0.1-0.4,0.2-0.4,0.2l4.3,82.8c47.8-27.8,80.1-79.5,80.1-138.8
		C744.1,272,672.2,200.1,583.6,200.1z"/>
	<path class="st3" d="M496.9,319.3c0.6-2.3,1.3-4.6,1.4-4.6c0.2-0.9-0.2-1.8-1.2-2.3c-0.9-0.5-2-0.2-2.5,0.5c0,0-1.1,1.7-2.7,4.3
		c-1.3,2.2-3.2,5.8-4.5,10.2c-1.1,3.9-2.5,9-3.1,14.8c-0.3,3-0.3,5.8-0.2,8.6c0.2,3.2,0.7,6,1.6,9.1c3.2,9,5.6,17.6,14.3,26.2
		c2.8,2.8,5.6,4.8,7.7,6.2l0.7,0.5c0.4,0.3,0.9,0.6,1.3,0.8c1.7,0.9,2.9,1.2,3.1,1.3c0.9,0.2,1.7-0.2,2.1-0.9
		c0.3-0.7,0.1-1.6-0.6-2.2c0,0-1-0.9-2.3-2.5c-0.9-1-1.8-2.4-2.9-4c-0.8-1.1-1.7-2.4-2.6-3.7c-4.3-6.5-6.7-15.6-10.1-24.9
		c-0.7-2-1.2-4.6-1.4-6.9c-0.3-2.6-0.4-5-0.4-7.3c-0.1-5.3,0.1-9.9,0.6-13.6C495.7,324.6,496.1,321.5,496.9,319.3z"/>
	<path class="st1" d="M583.6,170.3c-105,0-190.4,85.4-190.4,190.4c0,104.9,85.4,190.4,190.4,190.4c105,0,190.3-85.4,190.3-190.4
		C773.9,255.7,688.5,170.3,583.6,170.3z M583.6,536.8c-97.1,0-176.2-79-176.2-176.2c0-97.1,79-176.2,176.2-176.2
		c97.1,0,176.2,79,176.2,176.2C759.7,457.8,680.7,536.8,583.6,536.8z"/>
</g>
<g id="eNDyJk.tif">
	
		<image style="overflow:visible;" width="167" height="150" id="Layer_0_1_" xlink:href="D402FEF50AE89CE8.png"  transform="matrix(1.9851 0 0 1.9851 -983.2471 246.0989)">
	</image>
</g>
<path class="st4" d="M-19.1,367.6h118c0,0,0.7,5.7-7,10H-12.8C-12.8,377.6-18.5,375.9-19.1,367.6z"/>
<circle class="st3" cx="111.6" cy="358.3" r="160.6"/>
<path class="st0" d="M6.4,381.5h188.5c0,0,4.5,89.5-46.7,137.4h-96C52.2,518.9,5.4,478.4,6.4,381.5z"/>
<path class="st0" d="M204.8,387.8c-0.3,0.1-0.2,4.4-0.2,4.8c0.2,4.3-0.5,8.2-1.2,12.4c-0.1,0.8-0.5,2.1-1,2.7c0,0,7.7-4.7,15.4-3.1
	c7.7,1.6,5.6,15.4,5.6,15.4s-1.7,19.4-26.3,19.2c0,0-1.2,12-3.4,16.5c0,0,32.8,2,42.1-25.7C245.7,400.4,227,383.3,204.8,387.8z"/>
<path class="st0" d="M143.8,292.3c0,0,2.8,20.8-7.2,30c-10,9.2-16.4,20.4-6.4,33.2c10,12.8,12.7,11.6,12.7,11.6s-8.9-14.8,3.6-29.2
	C158.2,324.2,162.8,302.1,143.8,292.3z"/>
<path class="st0" d="M76.7,292.3c0,0,0.6,18.8-7.2,30c-8.4,12-10.4,27.2-4.6,35.6c6.5,9.5,10.9,9.2,10.9,9.2s-5.9-21.2,4.1-32
	C88.9,325.2,94.4,309,76.7,292.3"/>
<path class="st0" d="M121.8,274.6c5,10.9,4.3,25.5,0.6,35.7c-3.3,9.1-9.2,17.1-12.2,26.2c-2.2,6.7-2.8,14-1.7,21
	c0.3,1.8,0.6,3.5,1.1,5.2c0.3,1,1.8,3.8,0.4,3.9c-2.1,0.2-5.9-6.2-6.8-7.6c-3.5-5.3-6.6-10.9-8.4-16.9c-1.8-6.1-2.3-12.7-0.4-18.7
	c2.3-7.4,7.7-13.3,11.3-20.1c6.5-12.1,7.3-26.5,6.2-40.1C116.4,265.9,119.6,269.9,121.8,274.6z"/>
<path class="st3" d="M27.3,399.9h21.7c0,0,4.6,71.6,39.3,118.9c0,0-11.6,1-25.7-12C27.1,474.3,24.9,415.3,27.3,399.9z"/>
</svg>
