<?xml version="1.0" standalone="no"?>
<!DOCTYPE svg PUBLIC "-//W3C//DTD SVG 1.1//EN" "http://www.w3.org/Graphics/SVG/1.1/DTD/svg11.dtd" >
<svg xmlns="http://www.w3.org/2000/svg">
<metadata>
This is a custom SVG webfont generated by Font Squirrel.
Copyright   : Copyright  2009 by Jackson Cavanaugh  Okay Type  Design LLC All rights reserved
Designer    : Jackson Cavanaugh
Foundry     : Jackson Cavanaugh
Foundry URL : httpwwwokaytypecom
</metadata>
<defs>
<font id="AlrightSansMedium" horiz-adv-x="475" >
<font-face units-per-em="2048" ascent="1556" descent="-492" />
<missing-glyph horiz-adv-x="499" />
<glyph unicode=" "  horiz-adv-x="499" />
<glyph unicode="&#x09;" horiz-adv-x="499" />
<glyph unicode="&#xa0;" horiz-adv-x="499" />
<glyph unicode="!" horiz-adv-x="565" d="M150 0v240h266v-240h-266zM158 1174v260h248v-260l-62 -742h-125z" />
<glyph unicode="&#x22;" horiz-adv-x="860" d="M98 885v549h264l-124 -549h-140zM510 885v549h264l-125 -549h-139z" />
<glyph unicode="#" horiz-adv-x="1382" d="M66 260v174h268l45 271h-246v176h275l43 258h192l-43 -258h277l43 258h192l-43 -258h246v-176h-275l-43 -271h250v-174h-278l-43 -260h-195l43 260h-276l-43 -260h-193l43 260h-239zM526 434h277l45 271h-277z" />
<glyph unicode="$" horiz-adv-x="1144" d="M96 106l113 173q154 -100 328 -113v317q-80 18 -121 30.5t-107.5 40.5t-100.5 60.5t-60.5 87t-26.5 123.5q0 137 106.5 228.5t296.5 105.5v184h133v-184q190 -14 355 -94l-92 -174q-139 63 -275 78v-307q72 -16 117 -28.5t106.5 -41.5t96 -61.5t60.5 -89t26 -128.5 q0 -135 -100.5 -226t-293.5 -110v-249h-133v247q-235 12 -428 131zM348 836q0 -59 48 -92t141 -56v283q-92 -8 -140.5 -44t-48.5 -91zM645 170q182 20 182 137q0 57 -47 91t-135 59v-287z" />
<glyph unicode="%" horiz-adv-x="1581" d="M96 860q0 129 90 214t226 85q133 0 223 -85t90 -214q0 -133 -89 -218t-224.5 -85t-225.5 85t-90 218zM254 860q0 -72 44 -119t113.5 -47t112.5 47t43 119q0 70 -44 116t-111 46q-70 0 -114 -46t-44 -116zM285 0l841 1139h170l-839 -1139h-172zM856 283q0 129 90 214 t225 85q133 0 223.5 -85t90.5 -214q0 -133 -89 -218t-224.5 -85t-225.5 85t-90 218zM1014 283q0 -72 44 -119t113.5 -47t112.5 47t43 119q0 70 -44 115.5t-112 45.5q-70 0 -113.5 -45.5t-43.5 -115.5z" />
<glyph unicode="&#x26;" horiz-adv-x="1531" d="M84 403q0 260 287 426q-98 133 -99 271q0 150 116 254t296 104q229 0 389 -184l-153 -131q-115 125 -242 125q-78 0 -126 -48.5t-48 -117.5q0 -113 131 -248q180 -182 434 -381q63 131 64 283h215q0 -225 -111 -412q139 -102 260 -184l-129 -172q-125 86 -262 188 q-215 -201 -510 -201q-236 0 -374 126t-138 302zM309 420q0 -104 80 -174t219 -70q193 0 334 125q-270 215 -453 397q-180 -106 -180 -278z" />
<glyph unicode="'" horiz-adv-x="446" d="M98 885v549h264l-124 -549h-140z" />
<glyph unicode="(" horiz-adv-x="819" d="M119 567q0 551 352 979h270q-164 -168 -276.5 -420t-112.5 -559t113 -558t276 -419h-268q-354 422 -354 977z" />
<glyph unicode=")" horiz-adv-x="819" d="M78 -410q164 168 276.5 419t112.5 558t-112.5 559t-276.5 420h270q352 -428 352 -979q0 -555 -354 -977h-268z" />
<glyph unicode="*" horiz-adv-x="870" d="M92 1044l4 185l258 -39l4 4l-102 236l158 45l49 -252l6 -2l195 159l100 -141l-229 -106v-7l221 -133l-109 -133l-184 182l-4 -2l-72 -256l-151 56l118 237l-4 2z" />
<glyph unicode="+" horiz-adv-x="1261" d="M88 442v203h432v440h221v-440h433v-203h-433v-442h-221v442h-432z" />
<glyph unicode="," d="M86 -190q135 59 135 190h-119v272h271v-209q0 -145 -54.5 -224t-177.5 -128z" />
<glyph unicode="-" horiz-adv-x="792" d="M82 440v207h629v-207h-629z" />
<glyph unicode="." d="M102 0v272h271v-272h-271z" />
<glyph unicode="/" horiz-adv-x="1091" d="M-23 -410l902 1956h235l-901 -1956h-236z" />
<glyph unicode="0" horiz-adv-x="1378" d="M109 569.5q0 264.5 168.5 428t410.5 163.5q244 0 413 -163.5t169 -428t-169 -429.5t-413 -165q-242 0 -410.5 165t-168.5 429.5zM354 569q0 -172 94.5 -281.5t240 -109.5t240.5 109.5t95 281.5t-94 280.5t-242 108.5q-145 0 -239.5 -108.5t-94.5 -280.5z" />
<glyph unicode="1" horiz-adv-x="794" d="M43 1004l371 151h182v-1155h-242v913l-227 -88z" />
<glyph unicode="2" horiz-adv-x="1257" d="M123 967q240 195 534 194q229 0 357.5 -99t128.5 -257q0 -106 -69.5 -187t-173 -129.5t-209 -89.5t-189.5 -91t-103 -109h736v-199h-1000l-2 47q-6 129 48.5 228.5t139.5 153.5t186 102.5t188 80t145.5 80.5t58.5 109q0 74 -62.5 120t-174.5 46q-215 0 -406 -160z" />
<glyph unicode="3" horiz-adv-x="1243" d="M92 -209l90 184q193 -98 373 -98q170 0 273.5 69.5t103.5 188.5q0 215 -309 215h-207v189h198q268 0 269 221q0 90 -78 147.5t-213 57.5q-186 0 -365 -150l-129 160q242 188 508 188q231 0 375.5 -108.5t144.5 -278.5q0 -225 -217 -313q268 -96 269 -340 q0 -207 -177.5 -326t-443.5 -119q-236 0 -465 113z" />
<glyph unicode="4" horiz-adv-x="1335" d="M82 184l737 955h256v-944h205v-193h-205v-299h-233v299h-684zM330 195h512v682z" />
<glyph unicode="5" horiz-adv-x="1208" d="M86 -207l92 187q170 -96 367 -97q152 0 245 78t93 209q0 115 -78 187.5t-211 72.5q-117 0 -285 -61l-137 84l31 686h846v-193h-629l-17 -381q125 57 265 58q197 0 327.5 -124t130.5 -325q0 -227 -166.5 -361.5t-418.5 -134.5q-250 0 -455 115z" />
<glyph unicode="6" horiz-adv-x="1300" d="M109 674q0 205 54 360.5t148.5 245.5t208 134t242.5 44q197 0 381 -90l-94 -174q-141 68 -289 68q-166 0 -278.5 -121t-129.5 -359q76 66 179.5 105t207.5 39q209 0 335 -125t126 -338q0 -201 -145.5 -344.5t-384.5 -143.5q-285 0 -423 196t-138 503zM354 596 q10 -199 89 -312.5t231 -113.5q129 0 209 85t80 206q0 129 -70 206.5t-193 77.5q-98 0 -190.5 -43t-155.5 -106z" />
<glyph unicode="7" horiz-adv-x="1181" d="M84 934v205h1012v-174l-566 -1262h-262l572 1231h-756z" />
<glyph unicode="8" horiz-adv-x="1366" d="M104 381q0 131 90.5 227.5t225.5 139.5q-109 37 -181.5 122.5t-72.5 196.5q0 180 145.5 285.5t372.5 105.5t371.5 -105.5t144.5 -285.5q0 -111 -72.5 -197t-181.5 -122q135 -43 225.5 -139.5t90.5 -227.5q0 -190 -160 -298t-418 -108q-260 0 -420 108t-160 298zM346 389 q0 -104 94.5 -164.5t244 -60.5t242.5 60.5t93 164.5q0 106 -95.5 175t-240.5 83q-147 -14 -242.5 -83t-95.5 -175zM410 1065q0 -96 73.5 -158.5t200.5 -72.5q127 10 199.5 72.5t72.5 158.5q0 92 -76.5 148.5t-195.5 56.5q-121 0 -197.5 -56.5t-76.5 -148.5z" />
<glyph unicode="9" horiz-adv-x="1300" d="M94 674q0 203 144.5 345t384.5 142q147 0 259.5 -55t179 -153.5t99.5 -221.5t33 -270q0 -205 -54.5 -360.5t-147.5 -246t-205.5 -134.5t-241.5 -44q-213 0 -406 113l109 170q127 -84 297 -84q166 0 277.5 120t127.5 357q-172 -143 -377 -143q-213 0 -346 127t-133 338z M332 676q0 -125 77.5 -204t202.5 -79q195 0 336 146q-10 197 -93 311.5t-237 114.5q-131 0 -208.5 -84t-77.5 -205z" />
<glyph unicode=":" d="M102 0v272h271v-272h-271zM102 813v272h271v-272h-271z" />
<glyph unicode=";" d="M86 -190q135 59 135 190h-119v272h271v-209q0 -145 -54.5 -224t-177.5 -128zM102 813v272h271v-272h-271z" />
<glyph unicode="&#x3c;" horiz-adv-x="1273" d="M78 438v211l1081 436v-241l-803 -299l803 -307v-238z" />
<glyph unicode="=" horiz-adv-x="1261" d="M88 193v202h1086v-202h-1086zM88 690v203h1086v-203h-1086z" />
<glyph unicode="&#x3e;" horiz-adv-x="1273" d="M115 0v238l803 307l-803 299v241l1081 -436v-211z" />
<glyph unicode="?" horiz-adv-x="1114" d="M76 1249q197 209 467 209q215 0 344 -102.5t129 -274.5q0 -86 -32 -155.5t-80 -111.5t-104.5 -84t-104.5 -74.5t-80.5 -82t-32.5 -108.5l-2 -33h-185q-4 16 -4 60q0 102 40 175.5t96.5 115.5t112.5 79t96 87t40 120q0 84 -65.5 135t-171.5 51q-166 0 -316 -145zM356 0 v240h267v-240h-267z" />
<glyph unicode="@" horiz-adv-x="1710" d="M135 577.5q0 307.5 217 525.5t525 218q301 0 500.5 -190.5t199.5 -479.5q0 -223 -126 -353t-282 -130q-90 0 -146 39t-75 102q-90 -113 -225 -112q-106 0 -177 74.5t-71 203.5q0 184 111.5 339t296.5 155q119 0 184 -92l33 71h149l-139 -487q-25 -86 -1 -130t89 -44 q102 0 180 99t78 265q0 240 -164 394.5t-413 154.5q-256 0 -438.5 -183t-182.5 -439t182.5 -437.5t438.5 -181.5q188 0 346 107l69 -101q-190 -129 -417 -129q-307 0 -524.5 217t-217.5 524.5zM651 485q0 -72 31 -110.5t86 -38.5q59 0 109.5 43t72.5 127l78 266 q-53 53 -131 53q-106 0 -176 -109.5t-70 -230.5z" />
<glyph unicode="A" horiz-adv-x="1449" d="M49 0l531 1434h288l531 -1434h-264l-109 309h-604l-107 -309h-266zM489 508h467l-231 668h-4z" />
<glyph unicode="B" horiz-adv-x="1382" d="M158 0v1434h577q242 0 368 -105.5t126 -277.5q0 -213 -215 -308q270 -86 270 -333q0 -195 -137 -302.5t-375 -107.5h-614zM401 205h369q123 0 193.5 56t70.5 163q0 100 -70.5 153.5t-193.5 53.5h-369v-426zM401 825h322q125 0 190.5 57.5t65.5 149.5q0 88 -65.5 142.5 t-190.5 54.5h-322v-404z" />
<glyph unicode="C" horiz-adv-x="1447" d="M98 729q0 322 206 525.5t530 203.5q281 0 499 -170l-133 -176q-172 133 -362 133q-219 0 -354.5 -141t-135.5 -375q0 -246 133 -393.5t357 -147.5q217 0 376 156l152 -160q-217 -209 -539 -209q-326 0 -527.5 210t-201.5 544z" />
<glyph unicode="D" horiz-adv-x="1474" d="M158 0v1434h442q375 0 577.5 -188.5t202.5 -526.5q0 -344 -197.5 -531.5t-582.5 -187.5h-442zM401 207h213q252 0 384 135t132 377q0 236 -135 372t-381 136h-213v-1020z" />
<glyph unicode="E" horiz-adv-x="1302" d="M158 0v1434h1016v-217h-773v-388h693v-200h-693v-412h783v-217h-1026z" />
<glyph unicode="F" horiz-adv-x="1271" d="M158 0v1434h999v-217h-754v-404h652v-209h-652v-604h-245z" />
<glyph unicode="G" horiz-adv-x="1497" d="M98 729q0 319 203 524t533 205q274 0 507 -162l-127 -174q-180 123 -374 123q-219 0 -354.5 -143.5t-135.5 -372.5q0 -250 130 -395.5t360 -145.5q168 0 286 70v340h-360v182h588v-649q-221 -156 -520 -156q-334 0 -535 207t-201 547z" />
<glyph unicode="H" horiz-adv-x="1447" d="M158 0v1434h245v-598h644v598h243v-1434h-243v621h-644v-621h-245z" />
<glyph unicode="I" horiz-adv-x="559" d="M158 0v1434h245v-1434h-245z" />
<glyph unicode="J" horiz-adv-x="1181" d="M84 266l195 119q92 -193 266 -192q119 0 179 75.5t60 212.5v953h246v-957q0 -242 -124 -372t-351 -130q-156 0 -276.5 76t-194.5 215z" />
<glyph unicode="K" horiz-adv-x="1390" d="M158 0v1434h245v-721l609 721h280l-465 -543l514 -891h-284l-389 705l-265 -308v-397h-245z" />
<glyph unicode="L" horiz-adv-x="1243" d="M158 0v1434h245v-1217h760v-217h-1005z" />
<glyph unicode="M" horiz-adv-x="1753" d="M158 0v1434h248l473 -674l473 674h245v-1434h-237v1069l-483 -676l-484 676v-1069h-235z" />
<glyph unicode="N" horiz-adv-x="1501" d="M158 0v1434h235l715 -1039v1039h235v-1434h-235l-715 1036v-1036h-235z" />
<glyph unicode="O" horiz-adv-x="1660" d="M98 725q0 328 208 530.5t525.5 202.5t524.5 -202.5t207 -530.5q0 -336 -207 -543t-524.5 -207t-525.5 207t-208 543zM350 725q0 -246 136.5 -391.5t345 -145.5t345 145.5t136.5 391.5q0 238 -136.5 380t-345 142t-345 -142t-136.5 -380z" />
<glyph unicode="P" horiz-adv-x="1368" d="M158 0v1434h583q270 0 397.5 -128t127.5 -315q0 -184 -129 -315t-396 -131h-338v-545h-245zM403 745h336q141 0 211 70t70 174q0 106 -69.5 173t-209.5 67h-338v-484z" />
<glyph unicode="Q" horiz-adv-x="1675" d="M98 725q0 328 208 530.5t525.5 202.5t524.5 -202.5t207 -530.5q0 -281 -152 -477l168 -144l-133 -143l-170 154q-190 -139 -445 -140q-317 0 -525 207t-208 543zM350 725q0 -246 136.5 -391.5t344.5 -145.5q160 0 273 82l-250 211l127 142l248 -222q84 135 84 324 q0 238 -136.5 380t-345 142t-345 -142t-136.5 -380z" />
<glyph unicode="R" horiz-adv-x="1423" d="M158 0v1434h620q268 0 395 -128t127 -315q0 -133 -70.5 -239.5t-205.5 -159.5l287 -592h-269l-245 553h-6h-388v-553h-245zM403 745h371q139 0 209 69t70 175.5t-70 173t-207 66.5h-373v-484z" />
<glyph unicode="S" horiz-adv-x="1284" d="M94 129l119 195q213 -131 432 -131q137 0 210 53t73 143q0 88 -83 138.5t-202 78t-237.5 65.5t-201.5 131t-83 245q0 178 138 294.5t374 116.5q258 0 497 -117l-92 -196q-197 96 -397 96q-121 0 -192.5 -54t-71.5 -136q0 -57 34.5 -98.5t91 -63t129.5 -43t148.5 -37.5 t148 -49t129 -76t91.5 -117.5t35 -175.5q0 -184 -139.5 -300t-399.5 -116q-305 0 -551 154z" />
<glyph unicode="T" horiz-adv-x="1351" d="M57 1214v220h1237v-220h-495v-1214h-246v1214h-496z" />
<glyph unicode="U" horiz-adv-x="1474" d="M152 539v895h247v-895q0 -166 94.5 -258.5t244 -92.5t244.5 92.5t95 258.5v895h246v-895q0 -272 -162 -418t-424 -146t-423.5 146t-161.5 418z" />
<glyph unicode="V" horiz-adv-x="1439" d="M49 1434h270l398 -1153h4l403 1153h269l-533 -1434h-285z" />
<glyph unicode="W" horiz-adv-x="2146" d="M55 1434h260l330 -1088h4l312 1088h229l309 -1088h4l332 1088h258l-453 -1434h-264l-301 1051h-4l-301 -1051h-264z" />
<glyph unicode="X" horiz-adv-x="1458" d="M68 0l505 731l-483 703h299l344 -510l342 510h295l-485 -703l506 -731h-299l-365 541l-362 -541h-297z" />
<glyph unicode="Y" horiz-adv-x="1415" d="M43 1434h289l375 -617h4l376 617h285l-541 -854v-580h-247v580z" />
<glyph unicode="Z" horiz-adv-x="1331" d="M104 0v190l789 1022h-787v222h1106v-189l-784 -1022h809v-223h-1133z" />
<glyph unicode="[" horiz-adv-x="849" d="M166 -410v1956h557v-176h-317v-1603h317v-177h-557z" />
<glyph unicode="\" horiz-adv-x="1091" d="M-23 1546h236l901 -1956h-235z" />
<glyph unicode="]" horiz-adv-x="849" d="M127 -233h317v1603h-317v176h557v-1956h-557v177z" />
<glyph unicode="^" horiz-adv-x="1163" d="M186 1151l285 375h223l283 -375h-176l-217 195l-222 -195h-176z" />
<glyph unicode="_" horiz-adv-x="1136" d="M0 -27h1137v-206h-1137v206z" />
<glyph unicode="`" horiz-adv-x="1265" d="M410 1454l165 121l283 -379h-158z" />
<glyph unicode="a" horiz-adv-x="1124" d="M92 262q0 346 633 379v121q0 152 -176 151q-129 0 -342 -106l-88 186q238 115 438 115q207 0 306.5 -94t99.5 -258v-490q0 -98 100 -98v-172q-133 0 -200.5 28.5t-108.5 98.5q-141 -147 -336 -148q-145 0 -235.5 80t-90.5 207zM330 283q0 -57 41 -92t106 -35 q152 0 248 106v232q-395 -16 -395 -211z" />
<glyph unicode="b" horiz-adv-x="1232" d="M147 0v1546h240v-590q141 152 326 152q199 0 315.5 -143.5t116.5 -405.5q0 -281 -117 -432.5t-315 -151.5q-193 0 -338 156l-17 -131h-211zM387 295q117 -131 266 -131q123 0 187.5 102.5t64.5 290.5q0 362 -252 363q-147 0 -266 -138v-487z" />
<glyph unicode="c" horiz-adv-x="1075" d="M86 551q0 254 149.5 405.5t385.5 151.5q209 0 374 -129l-125 -160q-117 90 -243 90q-131 0 -215 -97t-84 -261q0 -176 82 -277.5t217 -101.5q137 0 254 100l135 -143q-172 -154 -395 -154q-238 0 -386.5 155t-148.5 421z" />
<glyph unicode="d" horiz-adv-x="1230" d="M88 559q0 262 117 405.5t315 143.5q184 0 330 -152v590h237v-1546h-210l-17 131q-150 -156 -340 -156q-199 0 -315.5 151.5t-116.5 432.5zM328 557q0 -188 64.5 -290.5t187.5 -102.5q154 0 270 131v487q-121 137 -270 138q-252 -1 -252 -363z" />
<glyph unicode="e" horiz-adv-x="1175" d="M88 551q0 252 150.5 405.5t379.5 153.5q227 0 345 -136t118 -360q0 -55 -8 -108h-745q18 -338 311 -338q152 0 305 98l105 -157q-197 -135 -424 -136q-246 0 -391.5 154t-145.5 424zM338 659h514q0 272 -227 273q-111 0 -187.5 -72t-99.5 -201z" />
<glyph unicode="f" horiz-adv-x="827" d="M41 893v178h182v66q0 424 432 424q106 0 215 -39l-59 -172q-78 23 -149 22q-201 0 -201 -233v-68h289v-178h-289v-893h-238v893h-182z" />
<glyph unicode="g" horiz-adv-x="1200" d="M49 -141.5q0 141.5 164 227.5q-70 57 -70 141q0 113 113 174q-158 113 -158 310q0 176 131 286.5t328 110.5q174 0 301 -94q119 96 295 96v-176q-137 0 -201 -21q57 -94 58 -202q0 -182 -135.5 -291t-317.5 -109q-90 0 -176 29q-51 -25 -51 -72q0 -45 68.5 -64.5 t254.5 -29.5q233 -12 352 -80.5t119 -214t-135 -227.5t-403 -82q-258 0 -397.5 73.5t-139.5 215zM276 -131q0 -135 299 -135q324 0 324 123q0 66 -62.5 91t-226.5 34q-143 6 -229 28q-105 -47 -105 -141zM330 711q0 -104 63.5 -167t163.5 -63q98 0 161.5 62.5t63.5 167.5 q0 102 -63.5 165.5t-161.5 63.5q-100 0 -163.5 -63.5t-63.5 -165.5z" />
<glyph unicode="h" horiz-adv-x="1208" d="M147 0v1546h240v-592q152 156 336 156q176 0 263 -102.5t87 -286.5v-721h-237v725q0 199 -170 199q-160 0 -279 -148v-776h-240z" />
<glyph unicode="i" horiz-adv-x="532" d="M147 0v1073h238v-1073h-238zM147 1303v229h238v-229h-238z" />
<glyph unicode="j" horiz-adv-x="552" d="M-127 -399l47 184q59 -18 107 -18q72 0 106.5 44t34.5 146v1116h238v-1106q0 -397 -355 -397q-96 0 -178 31zM168 1300v232h238v-232h-238z" />
<glyph unicode="k" horiz-adv-x="1148" d="M147 0v1546h240v-966l426 503h264l-336 -376l375 -707h-272l-260 528l-197 -223v-305h-240z" />
<glyph unicode="l" horiz-adv-x="534" d="M150 0v1546h237v-1546h-237z" />
<glyph unicode="m" horiz-adv-x="1849" d="M141 0v1083h224l12 -125q152 152 332 152q215 0 297 -168q164 168 366 168q168 0 255 -102.5t87 -282.5v-725h-237v729q0 193 -162 193q-150 0 -268 -138q4 -49 4 -73v-711h-240v729q0 193 -162 193q-160 0 -270 -146v-776h-238z" />
<glyph unicode="n" horiz-adv-x="1200" d="M141 0v1083h224l12 -129q147 156 340 156q176 0 263 -103.5t87 -285.5v-721h-238v725q0 199 -170 199q-162 0 -280 -148v-776h-238z" />
<glyph unicode="o" horiz-adv-x="1247" d="M88 555q0 248 151.5 400.5t385.5 152.5q231 0 381.5 -152.5t150.5 -400.5q0 -266 -146.5 -423t-385.5 -157q-244 0 -390.5 157t-146.5 423zM330 553q0 -178 78.5 -284.5t216.5 -106.5q133 0 210.5 106.5t77.5 284.5q0 164 -79.5 265.5t-208.5 101.5q-131 0 -213 -101.5 t-82 -265.5z" />
<glyph unicode="p" horiz-adv-x="1228" d="M145 -410v1493h213l19 -133q143 158 332 158q199 0 315.5 -143.5t116.5 -405.5q0 -281 -116 -432.5t-314 -151.5q-186 0 -330 150v-535h-236zM381 295q117 -131 268 -131q123 0 187.5 102.5t64.5 290.5q0 362 -252 363q-147 0 -268 -138v-487z" />
<glyph unicode="q" horiz-adv-x="1230" d="M88 559q0 262 117 405.5t315 143.5q190 0 334 -158l18 133h215v-1493h-237v535q-143 -150 -330 -150q-199 0 -315.5 151.5t-116.5 432.5zM328 557q0 -186 64.5 -289.5t187.5 -103.5q154 0 270 131v487q-121 137 -270 138q-123 0 -187.5 -92.5t-64.5 -270.5z" />
<glyph unicode="r" horiz-adv-x="874" d="M141 0v1083h217l19 -178q117 207 315 207q80 0 144 -27l-43 -219q-68 27 -138 27q-160 0 -276 -217v-676h-238z" />
<glyph unicode="s" horiz-adv-x="1021" d="M74 96l100 170q172 -102 338 -102q197 0 197 131q0 59 -62.5 94t-153 56.5t-180.5 51t-152.5 100.5t-62.5 183q0 154 118 241t294 87q188 0 391 -92l-90 -176q-160 80 -299 80q-80 0 -129 -33t-49 -96q0 -57 62.5 -91t151.5 -54.5t178 -49.5t151.5 -101.5t62.5 -187.5 q0 -158 -116.5 -245t-309.5 -87q-231 0 -440 121z" />
<glyph unicode="t" horiz-adv-x="854" d="M41 905v178h182v291h238v-291h301v-178h-301v-598q0 -137 110 -137q86 0 162 53l90 -151q-125 -96 -282 -97q-317 0 -318 328v602h-182z" />
<glyph unicode="u" horiz-adv-x="1204" d="M137 365v718h238v-723q0 -199 168 -198q160 0 284 145v776h238v-1083h-219l-15 131q-152 -156 -344 -156q-178 0 -264 103t-86 287z" />
<glyph unicode="v" horiz-adv-x="1083" d="M37 1083h244l262 -823h4l266 823h231l-372 -1083h-264z" />
<glyph unicode="w" horiz-adv-x="1714" d="M37 1083h239l252 -778h4l224 778h205l225 -778h4l250 778h233l-362 -1083h-228l-225 745h-4l-225 -745h-226z" />
<glyph unicode="x" horiz-adv-x="1097" d="M53 0l350 547l-340 536h259l227 -376l227 376h256l-338 -536l348 -547h-254l-241 387l-242 -387h-252z" />
<glyph unicode="y" horiz-adv-x="1091" d="M23 -389l69 190q98 -37 146 -37q57 0 92 26t57 89l49 127l-397 1077h244l268 -778h4l260 778h238l-430 -1214q-61 -168 -151.5 -233.5t-223.5 -65.5q-112 0 -225 41z" />
<glyph unicode="z" horiz-adv-x="1052" d="M94 0v160l559 733h-544v190h843v-161l-557 -734h578v-188h-879z" />
<glyph unicode="{" horiz-adv-x="989" d="M66 455v213h112q86 0 124 38.5t38 124.5v379q0 336 393 336h135v-174h-123q-92 0 -128.5 -38t-36.5 -126v-364q0 -219 -197 -281v-2q197 -68 197 -282v-351q0 -88 36.5 -126t128.5 -38h123v-174h-135q-393 0 -393 336v365q0 86 -38 125t-124 39h-112z" />
<glyph unicode="|" horiz-adv-x="634" d="M205 -410v1956h225v-1956h-225z" />
<glyph unicode="}" horiz-adv-x="989" d="M121 -236h123q92 0 129 38t37 126v351q0 215 196 282v2q-197 61 -196 281v364q0 88 -37 126t-129 38h-123v174h135q393 0 393 -336v-379q0 -86 38 -124.5t124 -38.5h113v-213h-113q-86 0 -124 -39t-38 -125v-365q0 -336 -393 -336h-135v174z" />
<glyph unicode="~" horiz-adv-x="1165" d="M141 453q0 133 64.5 215t183.5 82q57 0 113.5 -27t94.5 -58.5t85 -58t88 -26.5q94 0 88 135h164q2 -16 2 -47q0 -133 -64.5 -215t-183.5 -82q-72 0 -140.5 42t-129 85t-109.5 43q-98 0 -90 -138h-164q-2 19 -2 50z" />
<glyph unicode="&#xa1;" horiz-adv-x="563" d="M150 846v239h266v-239h-266zM158 -88l61 741h125l62 -741v-260h-248v260z" />
<glyph unicode="&#xa2;" horiz-adv-x="1263" d="M98 580q0 254 171 417.5t450 163.5h24l45 185h144l-49 -203q143 -33 264 -121l-121 -164q-98 72 -201 96l-188 -778q35 -8 84 -8q180 0 313 127l144 -143q-195 -178 -459 -179q-41 0 -115 9l-59 -254h-144l72 286q-176 66 -275.5 216.5t-99.5 349.5zM330 580 q0 -125 53 -221.5t147 -145.5l181 754q-166 -4 -273.5 -110.5t-107.5 -276.5z" />
<glyph unicode="&#xa3;" horiz-adv-x="1267" d="M72 184q0 88 65.5 146.5t161.5 58.5q90 0 209 -61q0 94 -70 200h-278v146h178q-63 102 -64 198q0 125 101.5 208t277.5 83q270 0 394 -205l-181 -84q-72 113 -200 113q-76 0 -119 -33.5t-43 -89.5q0 -72 82 -194h295v-140h-207q45 -90 45 -178q0 -66 -27 -131 q121 -68 213 -67q152 0 121 186h207q33 -172 -43 -268.5t-234 -96.5q-166 0 -346 125q-129 -125 -303 -125q-106 0 -170.5 59.5t-64.5 149.5zM211 184q0 -39 25.5 -62.5t70.5 -23.5q102 0 164 101q-98 66 -164 65q-43 0 -69.5 -21.5t-26.5 -58.5z" />
<glyph unicode="&#xa4;" horiz-adv-x="1366" d="M133 549q0 193 117 338l-111 117l109 102l106 -117q145 111 330 111q182 0 328 -111l108 117l109 -102l-113 -115q119 -152 119 -340q0 -184 -117 -338l111 -117l-109 -100l-108 115q-143 -109 -327.5 -109t-330.5 106l-106 -112l-109 100l109 117q-115 152 -115 338z M344 549q0 -139 100.5 -238.5t241.5 -99.5q139 0 239.5 99.5t100.5 238.5q0 141 -100.5 241.5t-239.5 100.5q-141 0 -241.5 -100.5t-100.5 -241.5z" />
<glyph unicode="&#xa5;" horiz-adv-x="1239" d="M49 1139h283l286 -373h3l286 373h281l-449 -568h369v-139h-369v-117h369v-139h-369v-176h-241v176h-369v139h369v117h-369v139h369z" />
<glyph unicode="&#xa6;" horiz-adv-x="634" d="M205 362h225v-772h-225v772zM205 723v823h225v-823h-225z" />
<glyph unicode="&#xa7;" horiz-adv-x="1107" d="M127 457q0 115 117 209q-88 74 -88 194q0 141 112.5 222t309.5 81q109 0 215 -44t176 -115l-152 -125q-100 106 -250 106q-86 0 -135 -30.5t-49 -88.5q0 -55 61.5 -93t149.5 -64.5t176 -60.5t149.5 -100.5t61.5 -162.5q0 -115 -117 -209q88 -74 88 -192 q0 -143 -112.5 -224.5t-309.5 -81.5q-109 0 -215 44.5t-176 115.5l152 125q100 -106 250 -106q86 0 135 30.5t49 87.5q0 55 -61.5 93t-149.5 65t-176 60.5t-149.5 100.5t-61.5 163zM338 489q0 -41 21.5 -72.5t66.5 -54t87 -37t107.5 -35t106.5 -36.5q43 51 43 98 q0 51 -40 89t-85 56.5t-133 46t-131 44.5q-43 -48 -43 -99z" />
<glyph unicode="&#xa8;" horiz-adv-x="1298" d="M330 1255v209h207v-209h-207zM764 1255v209h205v-209h-205z" />
<glyph unicode="&#xa9;" horiz-adv-x="1734" d="M125 577.5q0 307.5 217 525.5t524.5 218t525.5 -218t218 -525.5t-218 -524.5t-525.5 -217t-524.5 217t-217 524.5zM250 578q0 -256 181 -437.5t437 -181.5t438.5 181.5t182.5 437.5t-182.5 439t-438.5 183t-437 -183t-181 -439zM465 578q0 170 117.5 285.5t300.5 115.5 q164 0 299 -102l-101 -129q-106 76 -194 75q-104 0 -173 -69.5t-69 -175.5q0 -113 67.5 -179.5t174.5 -66.5q113 0 198 80l111 -113q-133 -127 -315 -127q-186 0 -301 112t-115 294z" />
<glyph unicode="&#xaa;" horiz-adv-x="784" d="M70 877q0 238 430 260v75q0 94 -117 95q-96 0 -236 -72l-59 133q156 80 299 80q139 0 207 -64.5t68 -175.5v-323q0 -66 69 -66v-123q-92 0 -137 17.5t-74 62.5q-98 -94 -223 -94q-100 0 -163.5 55.5t-63.5 139.5zM236 893q0 -37 25.5 -59.5t70.5 -22.5q98 0 168 66v151 q-264 -8 -264 -135z" />
<glyph unicode="&#xab;" horiz-adv-x="1300" d="M90 545l408 540l166 -124l-334 -416l334 -422l-166 -123zM618 545l408 540l166 -124l-334 -416l334 -422l-166 -123z" />
<glyph unicode="&#xac;" horiz-adv-x="1306" d="M121 940v199h1065v-590h-250v391h-815z" />
<glyph unicode="&#xad;" horiz-adv-x="792" d="M82 440v207h629v-207h-629z" />
<glyph unicode="&#xae;" horiz-adv-x="1734" d="M125 577.5q0 307.5 217 525.5t524.5 218t525.5 -218t218 -525.5t-218 -524.5t-525.5 -217t-524.5 217t-217 524.5zM250 578q0 -256 181 -437.5t437 -181.5t438.5 181.5t182.5 437.5t-182.5 439t-438.5 183t-437 -183t-181 -439zM559 195v770h371q150 0 221.5 -73 t71.5 -179q0 -68 -37 -127.5t-111 -91.5q16 -27 79 -147t85 -152h-190l-142 278h-172v-278h-176zM735 606h176q70 0 104 32t34 75q0 47 -33 79.5t-105 32.5h-176v-219z" />
<glyph unicode="&#xaf;" horiz-adv-x="1290" d="M338 1280v158h637v-158h-637z" />
<glyph unicode="&#xb0;" horiz-adv-x="851" d="M80 1122q0 145 102.5 241.5t243.5 96.5q139 0 241.5 -96t102.5 -242q0 -154 -99.5 -245t-242.5 -91q-145 0 -246.5 92t-101.5 244zM233 1122q0 -86 58.5 -139t136.5 -53q80 0 135 53t55 139q0 84 -56 138.5t-134 54.5t-136.5 -54.5t-58.5 -138.5z" />
<glyph unicode="&#xb1;" horiz-adv-x="1261" d="M88 0v168h432v338h-432v203h432v376h221v-376h433v-203h-433v-338h433v-168h-1086z" />
<glyph unicode="&#xb2;" horiz-adv-x="708" d="M68 1642q129 125 297 125q131 0 203.5 -62.5t72.5 -156.5q0 -82 -59.5 -142t-130 -88t-130 -70t-61.5 -93h379v-131h-545l-2 74q-2 76 25.5 134t70.5 91t93.5 62.5t94.5 50t73.5 50.5t29.5 64q0 37 -31.5 60.5t-93.5 23.5q-102 0 -186 -88z" />
<glyph unicode="&#xb3;" horiz-adv-x="698" d="M68 1075l59 123q100 -57 195 -57q70 0 114.5 30.5t44.5 73.5q0 94 -131 94h-112v125h102q117 0 117 88q0 37 -30 60.5t-83 23.5q-96 0 -188 -75l-82 100q127 106 276 106q115 0 190.5 -55t75.5 -139q0 -106 -90 -162q115 -49 115 -168q0 -109 -91 -171t-224 -62 q-131 -1 -258 65z" />
<glyph unicode="&#xb4;" horiz-adv-x="1265" d="M408 1196l284 379l164 -121l-291 -258h-157z" />
<glyph unicode="&#xb5;" horiz-adv-x="1181" d="M121 -410v1549h241v-793q6 -180 168 -180q166 0 289 143v830h242v-1139h-225l-11 119q-125 -139 -272 -139q-137 0 -201 69l-18 -459h-213z" />
<glyph unicode="&#xb6;" horiz-adv-x="1474" d="M119 1001q0 178 120.5 305.5t370.5 127.5h699v-1434h-215v1257h-193v-1257h-215v567h-72q-246 0 -370.5 131t-124.5 303z" />
<glyph unicode="&#xb7;" d="M102 408v272h271v-272h-271z" />
<glyph unicode="&#xb8;" horiz-adv-x="1265" d="M438 -362q102 78 175 180t87 211h146q-18 -287 -234 -480z" />
<glyph unicode="&#xb9;" horiz-adv-x="624" d="M86 1640l236 115h120v-731h-155v575l-140 -73z" />
<glyph unicode="&#xba;" horiz-adv-x="866" d="M53 1073q0 168 104.5 271.5t264.5 103.5t263 -103.5t103 -271.5q0 -180 -100 -285.5t-266 -105.5q-168 0 -268.5 105.5t-100.5 285.5zM219 1071q0 -117 54.5 -185.5t148.5 -68.5q90 0 143 69.5t53 184.5q0 106 -54 173t-142 67q-90 0 -146.5 -67t-56.5 -173z" />
<glyph unicode="&#xbb;" horiz-adv-x="1300" d="M109 123l333 422l-333 416l165 124l408 -540l-408 -545zM639 123l334 422l-334 416l166 124l407 -540l-407 -545z" />
<glyph unicode="&#xbc;" horiz-adv-x="1601" d="M123 1333l235 115h121v-731h-155v575l-140 -73zM195 0l1212 1434h170l-1210 -1434h-172zM973 262l354 469h170v-461h94v-125h-94v-145h-154v145h-321zM1135 270h208v291z" />
<glyph unicode="&#xbd;" horiz-adv-x="1726" d="M123 1333l235 115h121v-731h-155v575l-140 -73zM193 0l1212 1434h170l-1210 -1434h-172zM1139 618q129 125 297 125q131 0 203.5 -62.5t72.5 -156.5q0 -82 -59.5 -142t-130 -88t-130 -70t-61.5 -93h379v-131h-545l-2 74q-2 76 26 134t71 91t93 62.5t94 50t73.5 50.5 t29.5 64q0 37 -31.5 60.5t-93.5 23.5q-102 0 -186 -88z" />
<glyph unicode="&#xbe;" horiz-adv-x="1570" d="M66 768l59 123q100 -57 194 -57q70 0 115 30.5t45 73.5q0 94 -131 94h-112v125h102q117 0 117 88q0 37 -30 60.5t-83 23.5q-96 0 -188 -76l-82 101q127 106 276 106q115 0 190.5 -55t75.5 -139q0 -106 -90 -162q115 -49 115 -168q0 -109 -91 -171.5t-224 -62.5 q-131 0 -258 66zM164 0l1212 1434h170l-1210 -1434h-172zM958 262l355 469h170v-461h94v-125h-94v-145h-154v145h-321zM1120 270h209v291z" />
<glyph unicode="&#xbf;" horiz-adv-x="1091" d="M111 4q0 86 31.5 155.5t79.5 111.5t104.5 84t104.5 75t81 82t33 109l2 32h184q4 -16 4 -59q0 -102 -40 -176t-96 -116t-112.5 -79t-96.5 -87t-40 -120q0 -84 65.5 -135t172.5 -51q166 0 315 145l148 -139q-197 -209 -467 -209q-215 0 -344 102.5t-129 274.5zM504 846v239 h266v-239h-266z" />
<glyph unicode="&#xc0;" horiz-adv-x="1449" d="M49 0l531 1434h288l531 -1434h-264l-109 309h-604l-107 -309h-266zM420 1718l182 125l236 -297h-176zM489 508h467l-231 668h-4z" />
<glyph unicode="&#xc1;" horiz-adv-x="1449" d="M49 0l531 1434h288l531 -1434h-264l-109 309h-604l-107 -309h-266zM489 508h467l-231 668h-4zM612 1546l234 297l184 -125l-244 -172h-174z" />
<glyph unicode="&#xc2;" horiz-adv-x="1449" d="M49 0l531 1434h288l531 -1434h-264l-109 309h-604l-107 -309h-266zM362 1546l250 254h226l252 -254h-162l-201 127h-2l-203 -127h-160zM489 508h467l-231 668h-4z" />
<glyph unicode="&#xc3;" horiz-adv-x="1449" d="M49 0l531 1434h288l531 -1434h-264l-109 309h-604l-107 -309h-266zM393 1548q-14 121 39 192.5t156 71.5q72 0 150.5 -55t109.5 -55q76 0 63 96h144q14 -121 -40 -193.5t-157 -72.5q-72 0 -149.5 55t-110.5 55q-76 0 -63 -94h-142zM489 508h467l-231 668h-4z" />
<glyph unicode="&#xc4;" horiz-adv-x="1449" d="M49 0l531 1434h288l531 -1434h-264l-109 309h-604l-107 -309h-266zM401 1569v209h207v-209h-207zM489 508h467l-231 668h-4zM844 1569v209h207v-209h-207z" />
<glyph unicode="&#xc5;" horiz-adv-x="1449" d="M49 0l514 1393q-74 63 -74 166q0 96 68 160.5t166 64.5t166.5 -64.5t68.5 -160.5q0 -102 -75 -166l516 -1393h-264l-109 309h-604l-107 -309h-266zM489 508h467l-231 668h-4zM600 1559q0 -51 36 -88t87 -37t88 36.5t37 88.5q0 53 -36 88.5t-89 35.5q-51 0 -87 -35.5 t-36 -88.5z" />
<glyph unicode="&#xc6;" horiz-adv-x="2164" d="M39 0l655 1434h1342v-217h-936l108 -386h748v-204h-688l116 -410h664v-217h-866l-84 309h-647l-136 -309h-276zM541 514h503l-188 703h-8z" />
<glyph unicode="&#xc7;" horiz-adv-x="1447" d="M98 729q0 322 206 525.5t530 203.5q281 0 499 -170l-133 -176q-172 133 -362 133q-219 0 -354.5 -141t-135.5 -375q0 -246 133 -393.5t357 -147.5q217 0 376 156l152 -160q-211 -203 -518 -209q-33 -252 -227 -426l-175 89q203 156 252 348q-272 41 -436 242.5 t-164 500.5z" />
<glyph unicode="&#xc8;" horiz-adv-x="1302" d="M158 0v1434h1016v-217h-773v-388h693v-200h-693v-412h783v-217h-1026zM367 1718l182 125l235 -297h-176z" />
<glyph unicode="&#xc9;" horiz-adv-x="1302" d="M158 0v1434h1016v-217h-773v-388h693v-200h-693v-412h783v-217h-1026zM559 1546l234 297l184 -125l-244 -172h-174z" />
<glyph unicode="&#xca;" horiz-adv-x="1302" d="M158 0v1434h1016v-217h-773v-388h693v-200h-693v-412h783v-217h-1026zM309 1546l250 254h225l252 -254h-162l-200 127h-2l-203 -127h-160z" />
<glyph unicode="&#xcb;" horiz-adv-x="1302" d="M158 0v1434h1016v-217h-773v-388h693v-200h-693v-412h783v-217h-1026zM348 1569v209h207v-209h-207zM791 1569v209h206v-209h-206z" />
<glyph unicode="&#xcc;" horiz-adv-x="559" d="M-25 1718l183 125l235 -297h-176zM158 0v1434h245v-1434h-245z" />
<glyph unicode="&#xcd;" horiz-adv-x="559" d="M158 0v1434h245v-1434h-245zM168 1546l233 297l185 -125l-244 -172h-174z" />
<glyph unicode="&#xce;" horiz-adv-x="559" d="M-82 1546l250 254h225l252 -254h-162l-200 127h-2l-203 -127h-160zM158 0v1434h245v-1434h-245z" />
<glyph unicode="&#xcf;" horiz-adv-x="559" d="M-43 1569v209h207v-209h-207zM158 0v1434h245v-1434h-245zM399 1569v209h207v-209h-207z" />
<glyph unicode="&#xd0;" horiz-adv-x="1550" d="M29 641v160h204v633h443q375 0 577.5 -188.5t202.5 -526.5q0 -344 -197.5 -531.5t-582.5 -187.5h-443v641h-204zM477 207h213q252 0 384 135t132 377q0 236 -135 372t-381 136h-213v-426h367v-158h-367v-436z" />
<glyph unicode="&#xd1;" horiz-adv-x="1501" d="M158 0v1434h235l715 -1039v1039h235v-1434h-235l-715 1036v-1036h-235zM420 1548q-14 121 39 192.5t155 71.5q72 0 151 -55t109 -55q76 0 64 96h143q14 -121 -40 -193.5t-156 -72.5q-72 0 -150 55t-110 55q-76 0 -64 -94h-141z" />
<glyph unicode="&#xd2;" horiz-adv-x="1660" d="M98 725q0 328 208 530.5t525.5 202.5t524.5 -202.5t207 -530.5q0 -336 -207 -543t-524.5 -207t-525.5 207t-208 543zM350 725q0 -246 136.5 -391.5t345 -145.5t345 145.5t136.5 391.5q0 238 -136.5 380t-345 142t-345 -142t-136.5 -380zM528 1718l183 125l235 -297h-176z " />
<glyph unicode="&#xd3;" horiz-adv-x="1660" d="M98 725q0 328 208 530.5t525.5 202.5t524.5 -202.5t207 -530.5q0 -336 -207 -543t-524.5 -207t-525.5 207t-208 543zM350 725q0 -246 136.5 -391.5t345 -145.5t345 145.5t136.5 391.5q0 238 -136.5 380t-345 142t-345 -142t-136.5 -380zM719 1546l233 297l185 -125 l-244 -172h-174z" />
<glyph unicode="&#xd4;" horiz-adv-x="1660" d="M98 725q0 328 208 530.5t525.5 202.5t524.5 -202.5t207 -530.5q0 -336 -207 -543t-524.5 -207t-525.5 207t-208 543zM350 725q0 -246 136.5 -391.5t345 -145.5t345 145.5t136.5 391.5q0 238 -136.5 380t-345 142t-345 -142t-136.5 -380zM469 1546l250 254h225l252 -254 h-162l-200 127h-3l-202 -127h-160z" />
<glyph unicode="&#xd5;" horiz-adv-x="1660" d="M98 725q0 328 208 530.5t525.5 202.5t524.5 -202.5t207 -530.5q0 -336 -207 -543t-524.5 -207t-525.5 207t-208 543zM350 725q0 -246 136.5 -391.5t345 -145.5t345 145.5t136.5 391.5q0 238 -136.5 380t-345 142t-345 -142t-136.5 -380zM500 1548q-14 121 39 192.5 t155 71.5q72 0 151 -55t109 -55q76 0 64 96h143q14 -121 -40 -193.5t-156 -72.5q-72 0 -150 55t-110 55q-76 0 -64 -94h-141z" />
<glyph unicode="&#xd6;" horiz-adv-x="1660" d="M98 725q0 328 208 530.5t525.5 202.5t524.5 -202.5t207 -530.5q0 -336 -207 -543t-524.5 -207t-525.5 207t-208 543zM350 725q0 -246 136.5 -391.5t345 -145.5t345 145.5t136.5 391.5q0 238 -136.5 380t-345 142t-345 -142t-136.5 -380zM508 1569v209h207v-209h-207z M950 1569v209h207v-209h-207z" />
<glyph unicode="&#xd7;" horiz-adv-x="1218" d="M127 188l336 355l-336 352l147 145l334 -352l336 352l148 -145l-336 -352l336 -355l-148 -143l-336 352l-334 -352z" />
<glyph unicode="&#xd8;" horiz-adv-x="1660" d="M98 725q0 328 208 530.5t525 202.5q225 0 402 -106l121 155l121 -96l-125 -151q213 -203 213 -535q0 -336 -207 -543t-525 -207q-227 0 -399 107l-125 -156l-119 92l127 156q-217 211 -217 551zM350 725q0 -221 119 -371l631 815q-121 78 -269 78q-209 0 -345 -142 t-136 -380zM563 266q115 -78 268 -78q209 0 345.5 145.5t136.5 391.5q0 213 -117 356z" />
<glyph unicode="&#xd9;" horiz-adv-x="1474" d="M152 539v895h247v-895q0 -166 94.5 -258.5t244 -92.5t244.5 92.5t95 258.5v895h246v-895q0 -272 -162 -418t-424 -146t-423.5 146t-161.5 418zM432 1718l182 125l236 -297h-176z" />
<glyph unicode="&#xda;" horiz-adv-x="1474" d="M152 539v895h247v-895q0 -166 94.5 -258.5t244 -92.5t244.5 92.5t95 258.5v895h246v-895q0 -272 -162 -418t-424 -146t-423.5 146t-161.5 418zM625 1546l233 297l184 -125l-243 -172h-174z" />
<glyph unicode="&#xdb;" horiz-adv-x="1474" d="M152 539v895h247v-895q0 -166 94.5 -258.5t244 -92.5t244.5 92.5t95 258.5v895h246v-895q0 -272 -162 -418t-424 -146t-423.5 146t-161.5 418zM375 1546l250 254h225l252 -254h-162l-201 127h-2l-202 -127h-160z" />
<glyph unicode="&#xdc;" horiz-adv-x="1474" d="M152 539v895h247v-895q0 -166 94.5 -258.5t244 -92.5t244.5 92.5t95 258.5v895h246v-895q0 -272 -162 -418t-424 -146t-423.5 146t-161.5 418zM414 1569v209h207v-209h-207zM856 1569v209h207v-209h-207z" />
<glyph unicode="&#xdd;" horiz-adv-x="1415" d="M43 1434h289l375 -617h4l376 617h285l-541 -854v-580h-247v580zM596 1546l233 297l185 -125l-244 -172h-174z" />
<glyph unicode="&#xde;" horiz-adv-x="1353" d="M158 0v1434h245v-236h263q289 0 436 -127t147 -344q0 -225 -145.5 -354t-435.5 -129h-265v-244h-245zM403 444h263q164 0 251 74t87 209q0 129 -89.5 198.5t-248.5 69.5h-263v-551z" />
<glyph unicode="&#xdf;" horiz-adv-x="1329" d="M141 0v1100q0 217 138.5 339t359.5 122q217 0 360.5 -118t143.5 -310q0 -231 -232 -332v-2q150 -35 240 -132.5t90 -250.5q0 -205 -136 -320.5t-343 -115.5q-127 0 -238 36l41 191q96 -31 166 -31q117 0 193.5 65.5t76.5 184.5q0 127 -87 192.5t-226 65.5h-92v197h49 q117 0 188.5 66.5t71.5 174.5q0 115 -72.5 183.5t-193.5 68.5t-190.5 -69.5t-69.5 -202.5v-1102h-238z" />
<glyph unicode="&#xe0;" horiz-adv-x="1124" d="M92 262q0 346 633 379v121q0 152 -176 151q-129 0 -342 -106l-88 186q238 115 438 115q207 0 306.5 -94t99.5 -258v-490q0 -98 100 -98v-172q-133 0 -200.5 28.5t-108.5 98.5q-141 -147 -336 -148q-145 0 -235.5 80t-90.5 207zM256 1454l166 121l283 -379h-158zM330 283 q0 -57 41 -92t106 -35q152 0 248 106v232q-395 -16 -395 -211z" />
<glyph unicode="&#xe1;" horiz-adv-x="1124" d="M92 262q0 346 633 379v121q0 152 -176 151q-129 0 -342 -106l-88 186q238 115 438 115q207 0 306.5 -94t99.5 -258v-490q0 -98 100 -98v-172q-133 0 -200.5 28.5t-108.5 98.5q-141 -147 -336 -148q-145 0 -235.5 80t-90.5 207zM330 283q0 -57 41 -92t106 -35 q152 0 248 106v232q-395 -16 -395 -211zM444 1196l285 379l164 -121l-291 -258h-158z" />
<glyph unicode="&#xe2;" horiz-adv-x="1124" d="M92 262q0 346 633 379v121q0 152 -176 151q-129 0 -342 -106l-88 186q238 115 438 115q207 0 306.5 -94t99.5 -258v-490q0 -98 100 -98v-172q-133 0 -200.5 28.5t-108.5 98.5q-141 -147 -336 -148q-145 0 -235.5 80t-90.5 207zM203 1196l250 328h243l250 -328h-168 l-203 197h-4l-202 -197h-166zM330 283q0 -57 41 -92t106 -35q152 0 248 106v232q-395 -16 -395 -211z" />
<glyph unicode="&#xe3;" horiz-adv-x="1124" d="M92 262q0 346 633 379v121q0 152 -176 151q-129 0 -342 -106l-88 186q238 115 438 115q207 0 306.5 -94t99.5 -258v-490q0 -98 100 -98v-172q-133 0 -200.5 28.5t-108.5 98.5q-141 -147 -336 -148q-145 0 -235.5 80t-90.5 207zM244 1233q-14 123 40 194.5t156 71.5 q72 0 149 -55t107 -55q76 0 64 98h141q14 -125 -39 -196.5t-155 -71.5q-70 0 -148 55t-108 55q-76 0 -64 -96h-143zM330 283q0 -57 41 -92t106 -35q152 0 248 106v232q-395 -16 -395 -211z" />
<glyph unicode="&#xe4;" horiz-adv-x="1124" d="M92 262q0 346 633 379v121q0 152 -176 151q-129 0 -342 -106l-88 186q238 115 438 115q207 0 306.5 -94t99.5 -258v-490q0 -98 100 -98v-172q-133 0 -200.5 28.5t-108.5 98.5q-141 -147 -336 -148q-145 0 -235.5 80t-90.5 207zM254 1255v209h207v-209h-207zM330 283 q0 -57 41 -92t106 -35q152 0 248 106v232q-395 -16 -395 -211zM688 1255v209h205v-209h-205z" />
<glyph unicode="&#xe5;" horiz-adv-x="1124" d="M92 262q0 346 633 379v121q0 152 -176 151q-129 0 -342 -106l-88 186q238 115 438 115q207 0 306.5 -94t99.5 -258v-490q0 -98 100 -98v-172q-133 0 -200.5 28.5t-108.5 98.5q-141 -147 -336 -148q-145 0 -235.5 80t-90.5 207zM330 283q0 -57 41 -92t106 -35 q152 0 248 106v232q-395 -16 -395 -211zM340 1407q0 96 67.5 160.5t166 64.5t166 -64.5t67.5 -160.5q0 -94 -67.5 -158.5t-166 -64.5t-166 64.5t-67.5 158.5zM449 1407q0 -51 35.5 -88t89 -37t89 37t35.5 88q0 53 -35.5 89t-89 36t-89 -36t-35.5 -89z" />
<glyph unicode="&#xe6;" horiz-adv-x="1808" d="M92 260q-2 184 170 271t465 102v131q0 70 -43 109.5t-129 39.5q-137 0 -346 -106l-90 186q252 117 438 117q252 0 330 -164q141 164 373 164q223 0 340.5 -136t117.5 -360q0 -41 -10 -108h-741q8 -164 85.5 -251t223.5 -87q150 0 303 98l104 -157q-190 -135 -417 -136 q-283 0 -428 193q-68 -82 -176.5 -137.5t-235.5 -55.5q-150 0 -242 80t-92 207zM332 281q0 -55 42 -91t105 -36q180 0 283 151q-29 86 -35 187q-395 -16 -395 -211zM973 659h514q0 123 -54.5 198t-170.5 75q-111 0 -187.5 -72t-101.5 -201z" />
<glyph unicode="&#xe7;" horiz-adv-x="1075" d="M86 551q0 254 149.5 405.5t385.5 151.5q209 0 374 -129l-125 -160q-117 90 -243 90q-131 0 -215 -97t-84 -261q0 -176 82 -277.5t217 -101.5q137 0 254 100l135 -143q-160 -145 -365 -154q-33 -252 -227 -426l-174 89q205 158 254 350q-190 35 -304 183.5t-114 379.5z " />
<glyph unicode="&#xe8;" horiz-adv-x="1175" d="M88 551q0 252 150.5 405.5t379.5 153.5q227 0 345 -136t118 -360q0 -55 -8 -108h-745q18 -338 311 -338q152 0 305 98l105 -157q-197 -135 -424 -136q-246 0 -391.5 154t-145.5 424zM297 1454l166 121l282 -379h-157zM338 659h514q0 272 -227 273q-111 0 -187.5 -72 t-99.5 -201z" />
<glyph unicode="&#xe9;" horiz-adv-x="1175" d="M88 551q0 252 150.5 405.5t379.5 153.5q227 0 345 -136t118 -360q0 -55 -8 -108h-745q18 -338 311 -338q152 0 305 98l105 -157q-197 -135 -424 -136q-246 0 -391.5 154t-145.5 424zM338 659h514q0 272 -227 273q-111 0 -187.5 -72t-99.5 -201zM485 1196l285 379 l164 -121l-291 -258h-158z" />
<glyph unicode="&#xea;" horiz-adv-x="1175" d="M88 551q0 252 150.5 405.5t379.5 153.5q227 0 345 -136t118 -360q0 -55 -8 -108h-745q18 -338 311 -338q152 0 305 98l105 -157q-197 -135 -424 -136q-246 0 -391.5 154t-145.5 424zM248 1196l250 328h243l250 -328h-168l-202 197h-5l-202 -197h-166zM338 659h514 q0 272 -227 273q-111 0 -187.5 -72t-99.5 -201z" />
<glyph unicode="&#xeb;" horiz-adv-x="1175" d="M88 551q0 252 150.5 405.5t379.5 153.5q227 0 345 -136t118 -360q0 -55 -8 -108h-745q18 -338 311 -338q152 0 305 98l105 -157q-197 -135 -424 -136q-246 0 -391.5 154t-145.5 424zM299 1255v209h207v-209h-207zM338 659h514q0 272 -227 273q-111 0 -187.5 -72 t-99.5 -201zM733 1255v209h205v-209h-205z" />
<glyph unicode="&#xec;" horiz-adv-x="532" d="M-53 1454l166 121l282 -379h-157zM147 0v1073h238v-1073h-238z" />
<glyph unicode="&#xed;" horiz-adv-x="532" d="M135 1196l285 379l164 -121l-291 -258h-158zM147 0v1073h238v-1073h-238z" />
<glyph unicode="&#xee;" horiz-adv-x="532" d="M-106 1196l249 328h244l250 -328h-168l-203 197h-4l-203 -197h-165zM147 0v1073h238v-1073h-238z" />
<glyph unicode="&#xef;" horiz-adv-x="532" d="M-53 1255v209h207v-209h-207zM147 0v1073h238v-1073h-238zM381 1255v209h205v-209h-205z" />
<glyph unicode="&#xf0;" horiz-adv-x="1239" d="M102 475q0 205 127 336t320 131q166 0 295 -98q-68 176 -223 358l-250 -106l-66 135q123 51 209 86q-72 74 -248 229h287q106 -94 156 -145l198 90l66 -139q-84 -37 -158 -70q319 -377 320 -752q0 -270 -140.5 -412.5t-373.5 -142.5q-240 0 -379.5 140.5t-139.5 359.5z M342 475q0 -141 76 -229t203 -88q129 0 203.5 94t74.5 264q0 78 -8 141q-129 115 -293 115q-113 0 -184.5 -79t-71.5 -218z" />
<glyph unicode="&#xf1;" horiz-adv-x="1200" d="M141 0v1083h224l12 -129q147 156 340 156q176 0 263 -103.5t87 -285.5v-721h-238v725q0 199 -170 199q-162 0 -280 -148v-776h-238zM272 1233q-14 123 40.5 194.5t156.5 71.5q72 0 148.5 -55t107.5 -55q76 0 63 98h142q14 -125 -39 -196.5t-156 -71.5q-70 0 -147.5 55 t-108.5 55q-76 0 -63 -96h-144z" />
<glyph unicode="&#xf2;" horiz-adv-x="1247" d="M88 555q0 248 151.5 400.5t385.5 152.5q231 0 381.5 -152.5t150.5 -400.5q0 -266 -146.5 -423t-385.5 -157q-244 0 -390.5 157t-146.5 423zM301 1454l166 121l283 -379h-158zM330 553q0 -178 78.5 -284.5t216.5 -106.5q133 0 210.5 106.5t77.5 284.5q0 164 -79.5 265.5 t-208.5 101.5q-131 0 -213 -101.5t-82 -265.5z" />
<glyph unicode="&#xf3;" horiz-adv-x="1247" d="M88 555q0 248 151.5 400.5t385.5 152.5q231 0 381.5 -152.5t150.5 -400.5q0 -266 -146.5 -423t-385.5 -157q-244 0 -390.5 157t-146.5 423zM330 553q0 -178 78.5 -284.5t216.5 -106.5q133 0 210.5 106.5t77.5 284.5q0 164 -79.5 265.5t-208.5 101.5q-131 0 -213 -101.5 t-82 -265.5zM492 1196l284 379l164 -121l-291 -258h-157z" />
<glyph unicode="&#xf4;" horiz-adv-x="1247" d="M88 555q0 248 151.5 400.5t385.5 152.5q231 0 381.5 -152.5t150.5 -400.5q0 -266 -146.5 -423t-385.5 -157q-244 0 -390.5 157t-146.5 423zM252 1196l250 328h243l250 -328h-168l-202 197h-4l-203 -197h-166zM330 553q0 -178 78.5 -284.5t216.5 -106.5q133 0 210.5 106.5 t77.5 284.5q0 164 -79.5 265.5t-208.5 101.5q-131 0 -213 -101.5t-82 -265.5z" />
<glyph unicode="&#xf5;" horiz-adv-x="1247" d="M88 555q0 248 151.5 400.5t385.5 152.5q231 0 381.5 -152.5t150.5 -400.5q0 -266 -146.5 -423t-385.5 -157q-244 0 -390.5 157t-146.5 423zM293 1233q-14 123 40 194.5t156 71.5q72 0 149 -55t107 -55q76 0 64 98h141q14 -125 -39 -196.5t-155 -71.5q-70 0 -148 55 t-108 55q-76 0 -64 -96h-143zM330 553q0 -178 78.5 -284.5t216.5 -106.5q133 0 210.5 106.5t77.5 284.5q0 164 -79.5 265.5t-208.5 101.5q-131 0 -213 -101.5t-82 -265.5z" />
<glyph unicode="&#xf6;" horiz-adv-x="1247" d="M88 555q0 248 151.5 400.5t385.5 152.5q231 0 381.5 -152.5t150.5 -400.5q0 -266 -146.5 -423t-385.5 -157q-244 0 -390.5 157t-146.5 423zM303 1255v209h207v-209h-207zM330 553q0 -178 78.5 -284.5t216.5 -106.5q133 0 210.5 106.5t77.5 284.5q0 164 -79.5 265.5 t-208.5 101.5q-131 0 -213 -101.5t-82 -265.5zM737 1255v209h205v-209h-205z" />
<glyph unicode="&#xf7;" horiz-adv-x="1261" d="M88 442v203h1086v-203h-1086zM518 39v211h225v-211h-225zM518 836v211h225v-211h-225z" />
<glyph unicode="&#xf8;" horiz-adv-x="1247" d="M82 -14l135 166q-129 152 -129 403q0 248 151.5 400.5t385.5 152.5q160 0 288 -78l113 148l119 -95l-121 -147q133 -150 133 -381q0 -266 -146.5 -423t-385.5 -157q-170 0 -295 78l-125 -157zM330 553q0 -133 43 -225l415 534q-70 57 -163 58q-131 0 -213 -101.5 t-82 -265.5zM449 223q72 -61 176 -61q133 0 210.5 106.5t77.5 284.5q0 113 -43 205z" />
<glyph unicode="&#xf9;" horiz-adv-x="1204" d="M137 365v718h238v-723q0 -199 168 -198q160 0 284 145v776h238v-1083h-219l-15 131q-152 -156 -344 -156q-178 0 -264 103t-86 287zM266 1454l166 121l283 -379h-158z" />
<glyph unicode="&#xfa;" horiz-adv-x="1204" d="M137 365v718h238v-723q0 -199 168 -198q160 0 284 145v776h238v-1083h-219l-15 131q-152 -156 -344 -156q-178 0 -264 103t-86 287zM477 1196l285 379l164 -121l-291 -258h-158z" />
<glyph unicode="&#xfb;" horiz-adv-x="1204" d="M137 365v718h238v-723q0 -199 168 -198q160 0 284 145v776h238v-1083h-219l-15 131q-152 -156 -344 -156q-178 0 -264 103t-86 287zM229 1196l250 328h244l250 -328h-168l-203 197h-4l-203 -197h-166z" />
<glyph unicode="&#xfc;" horiz-adv-x="1204" d="M137 365v718h238v-723q0 -199 168 -198q160 0 284 145v776h238v-1083h-219l-15 131q-152 -156 -344 -156q-178 0 -264 103t-86 287zM281 1255v209h206v-209h-206zM715 1255v209h205v-209h-205z" />
<glyph unicode="&#xfd;" horiz-adv-x="1091" d="M23 -389l69 190q98 -37 146 -37q57 0 92 26t57 89l49 127l-397 1077h244l268 -778h4l260 778h238l-430 -1214q-61 -168 -151.5 -233.5t-223.5 -65.5q-112 0 -225 41zM420 1196l285 379l163 -121l-290 -258h-158z" />
<glyph unicode="&#xfe;" horiz-adv-x="1234" d="M150 -410v1956h237v-596q143 160 328 160q197 0 314.5 -144.5t117.5 -406.5q0 -281 -117 -433.5t-315 -152.5q-186 0 -328 152v-535h-237zM387 295q119 -133 268 -133q121 0 186.5 103.5t65.5 291.5q0 178 -64.5 271.5t-187.5 93.5q-147 0 -268 -140v-487z" />
<glyph unicode="&#xff;" horiz-adv-x="1091" d="M23 -389l69 190q98 -37 146 -37q57 0 92 26t57 89l49 127l-397 1077h244l268 -778h4l260 778h238l-430 -1214q-61 -168 -151.5 -233.5t-223.5 -65.5q-112 0 -225 41zM229 1255v209h207v-209h-207zM664 1255v209h204v-209h-204z" />
<glyph unicode="&#x152;" horiz-adv-x="2443" d="M100 729q0 309 204 519t509 210q307 0 487 -229v205h1014v-217h-770v-386h690v-204h-690v-410h783v-217h-1027v201q-174 -225 -487 -225.5t-513 211.5t-200 542zM348 729q0 -240 132 -390.5t343 -150.5t344 152t133 389q0 223 -136 369.5t-341 146.5t-340 -146.5 t-135 -369.5z" />
<glyph unicode="&#x153;" horiz-adv-x="2000" d="M88 555q0 248 152.5 401.5t386.5 153.5q279 0 405 -223q66 106 172.5 164.5t241.5 58.5q227 0 346 -136t119 -360q0 -41 -10 -108h-742q6 -164 84 -251t223 -87q152 0 303 98l107 -157q-195 -135 -418 -136q-297 0 -426 222q-129 -221 -405 -222q-242 0 -390.5 158 t-148.5 424zM332 555q0 -180 77.5 -286.5t215.5 -106.5q135 0 212.5 106.5t77.5 286.5q0 164 -79.5 265.5t-210.5 101.5t-212 -101.5t-81 -265.5zM1165 659h514q0 123 -55 198t-174 75q-106 0 -183 -73t-102 -200z" />
<glyph unicode="&#x178;" horiz-adv-x="1415" d="M43 1434h289l375 -617h4l376 617h285l-541 -854v-580h-247v580zM383 1569v209h207v-209h-207zM825 1569v209h207v-209h-207z" />
<glyph unicode="&#x2c6;" horiz-adv-x="1308" d="M295 1196l250 328h243l250 -328h-168l-202 197h-4l-203 -197h-166z" />
<glyph unicode="&#x2dc;" horiz-adv-x="1298" d="M326 1233q-14 123 40 194.5t156 71.5q72 0 149 -55t107 -55q76 0 64 98h141q14 -125 -39 -196.5t-156 -71.5q-70 0 -147.5 55t-108.5 55q-76 0 -63 -96h-143z" />
<glyph unicode="&#x2000;" horiz-adv-x="921" />
<glyph unicode="&#x2001;" horiz-adv-x="1843" />
<glyph unicode="&#x2002;" horiz-adv-x="921" />
<glyph unicode="&#x2003;" horiz-adv-x="1843" />
<glyph unicode="&#x2004;" horiz-adv-x="614" />
<glyph unicode="&#x2005;" horiz-adv-x="460" />
<glyph unicode="&#x2006;" horiz-adv-x="307" />
<glyph unicode="&#x2007;" horiz-adv-x="307" />
<glyph unicode="&#x2008;" horiz-adv-x="229" />
<glyph unicode="&#x2009;" horiz-adv-x="368" />
<glyph unicode="&#x200a;" horiz-adv-x="102" />
<glyph unicode="&#x2010;" horiz-adv-x="792" d="M82 440v207h629v-207h-629z" />
<glyph unicode="&#x2011;" horiz-adv-x="792" d="M82 440v207h629v-207h-629z" />
<glyph unicode="&#x2012;" horiz-adv-x="792" d="M82 440v207h629v-207h-629z" />
<glyph unicode="&#x2013;" horiz-adv-x="1253" d="M88 440v207h1077v-207h-1077z" />
<glyph unicode="&#x2014;" horiz-adv-x="1863" d="M92 440v207h1677v-207h-1677z" />
<glyph unicode="&#x2018;" d="M102 885v209q0 145 54.5 224t177.5 128l55 -98q-135 -59 -135 -191h119v-272h-271z" />
<glyph unicode="&#x2019;" d="M86 971q135 59 135 190h-119v273h271v-209q0 -145 -54.5 -224t-177.5 -129z" />
<glyph unicode="&#x201a;" d="M86 -190q135 59 135 190h-119v272h271v-209q0 -145 -54.5 -224t-177.5 -128z" />
<glyph unicode="&#x201c;" horiz-adv-x="907" d="M102 885v209q0 145 54.5 224t177.5 128l55 -98q-135 -59 -135 -191h119v-272h-271zM535 885v209q0 145 54 224t177 128l55 -98q-135 -59 -135 -191h119v-272h-270z" />
<glyph unicode="&#x201d;" horiz-adv-x="907" d="M86 971q135 59 135 190h-119v273h271v-209q0 -145 -54.5 -224t-177.5 -129zM518 971q135 59 135 190h-118v273h270v-209q0 -145 -54.5 -224t-177.5 -129z" />
<glyph unicode="&#x201e;" horiz-adv-x="907" d="M86 -190q135 59 135 190h-119v272h271v-209q0 -145 -54.5 -224t-177.5 -128zM518 -190q135 59 135 190h-118v272h270v-209q0 -145 -54.5 -224t-177.5 -128z" />
<glyph unicode="&#x2022;" horiz-adv-x="1159" d="M279 543q0 125 88 213t213 88t213 -88t88 -213t-88 -212t-213 -87t-213 87t-88 212z" />
<glyph unicode="&#x2026;" horiz-adv-x="1501" d="M102 0v272h271v-272h-271zM614 0v272h271v-272h-271zM1128 0v272h271v-272h-271z" />
<glyph unicode="&#x202f;" horiz-adv-x="368" />
<glyph unicode="&#x2039;" horiz-adv-x="772" d="M90 545l408 540l166 -124l-334 -416l334 -422l-166 -123z" />
<glyph unicode="&#x203a;" horiz-adv-x="772" d="M109 123l333 422l-333 416l165 124l408 -540l-408 -545z" />
<glyph unicode="&#x205f;" horiz-adv-x="460" />
<glyph unicode="&#x20ac;" horiz-adv-x="1318" d="M55 348v146h168q-4 25 -4 79q0 47 2 70h-166v148h199q61 170 208.5 271t344.5 101q254 0 422 -159l-137 -150q-117 113 -277 113q-109 0 -191.5 -49.5t-127.5 -137.5h348v-137h-389q-4 -23 -4 -70q0 -43 6 -79h387v-136h-344q98 -186 321 -186q172 0 279 117l153 -133 q-170 -180 -442 -181q-197 0 -345.5 100.5t-209.5 272.5h-201z" />
<glyph unicode="&#x2122;" horiz-adv-x="1806" d="M74 1282v152h696v-152h-260v-606h-174v606h-262zM899 676v758h176l223 -297l218 297h178v-758h-172v495l-219 -292l-230 295v-498h-174z" />
<glyph unicode="&#xe000;" horiz-adv-x="1085" d="M0 1085h1085v-1085h-1085v1085z" />
<glyph unicode="&#xfb01;" horiz-adv-x="1296" d="M41 893v178h182v59q0 428 463 429q240 0 455 -127l-90 -162q-184 102 -353 102q-125 0 -181 -59.5t-56 -186.5v-55h289v-178h-289v-893h-238v893h-182zM913 0v1073h238v-1073h-238z" />
<glyph unicode="&#xfb02;" horiz-adv-x="1323" d="M41 893v178h182v59q0 215 127 323t352 108q227 0 351.5 -109t124.5 -326v-1126h-238v1128q0 123 -57.5 183.5t-182.5 60.5t-182 -60.5t-57 -183.5v-57h291v-178h-291v-893h-238v893h-182z" />
<glyph unicode="&#xfb03;" horiz-adv-x="1974" d="M41 893v178h182v57q0 420 443 420q184 0 350 -96q115 106 348 107q242 0 453 -127l-93 -162q-176 102 -348 102q-125 0 -181 -59.5t-56 -186.5v-55h286v-178h-286v-893h-238v893h-440v-893h-238v893h-182zM461 1071h440v59q0 100 25 175q-106 59 -244 59 q-115 0 -168 -57.5t-53 -173.5v-62zM1589 0v1073h238v-1073h-238z" />
<glyph unicode="&#xfb04;" horiz-adv-x="2000" d="M41 893v178h182v57q0 420 443 420q190 0 356 -100q125 113 358 113q227 0 350 -109t123 -326v-1126h-237v1128q0 244 -238 244q-125 0 -182 -60.5t-57 -183.5v-57h288v-178h-288v-893h-238v893h-440v-893h-238v893h-182zM461 1071h440v59q0 100 27 175q-106 59 -246 59 q-115 0 -168 -57.5t-53 -173.5v-62z" />
</font>
</defs>
</svg>
